<mxfile host="app.diagrams.net" modified="2022-12-19T10:10:12.538Z" agent="5.0 (Windows NT 10.0; Win64; x64) AppleWebKit/537.36 (KHTML, like Gecko) Chrome/108.0.0.0 Safari/537.36" etag="Wt77bOcYgIyk4Su0-DV8" version="20.7.3" type="github">
  <diagram id="R2lEEEUBdFMjLlhIrx00" name="Page-1">
    <mxGraphModel dx="3612" dy="1153" grid="1" gridSize="10" guides="1" tooltips="1" connect="1" arrows="1" fold="1" page="1" pageScale="1" pageWidth="850" pageHeight="1100" math="0" shadow="0" extFonts="Permanent Marker^https://fonts.googleapis.com/css?family=Permanent+Marker">
      <root>
        <mxCell id="0" />
        <mxCell id="1" parent="0" />
        <mxCell id="bBOsbKYcq548n3KxFtVK-1" value="Employee" style="rounded=0;whiteSpace=wrap;html=1;" parent="1" vertex="1">
          <mxGeometry x="-910" y="570.95" width="120" height="60" as="geometry" />
        </mxCell>
        <mxCell id="bBOsbKYcq548n3KxFtVK-2" value="Belong to" style="rhombus;whiteSpace=wrap;html=1;" parent="1" vertex="1">
          <mxGeometry x="-1240" y="550" width="80" height="80" as="geometry" />
        </mxCell>
        <mxCell id="bBOsbKYcq548n3KxFtVK-3" value="" style="endArrow=classic;html=1;rounded=0;entryX=1;entryY=0.5;entryDx=0;entryDy=0;strokeWidth=3;startArrow=none;startFill=0;endFill=1;" parent="1" target="bBOsbKYcq548n3KxFtVK-2" edge="1">
          <mxGeometry width="50" height="50" relative="1" as="geometry">
            <mxPoint x="-910" y="601" as="sourcePoint" />
            <mxPoint x="-740" y="550.95" as="targetPoint" />
          </mxGeometry>
        </mxCell>
        <mxCell id="bBOsbKYcq548n3KxFtVK-6" value="Department" style="rounded=0;whiteSpace=wrap;html=1;" parent="1" vertex="1">
          <mxGeometry x="-1440" y="560" width="120" height="60" as="geometry" />
        </mxCell>
        <mxCell id="bBOsbKYcq548n3KxFtVK-7" value="" style="endArrow=none;html=1;rounded=0;entryX=1;entryY=0.5;entryDx=0;entryDy=0;exitX=0;exitY=0.5;exitDx=0;exitDy=0;" parent="1" source="bBOsbKYcq548n3KxFtVK-2" target="bBOsbKYcq548n3KxFtVK-6" edge="1">
          <mxGeometry width="50" height="50" relative="1" as="geometry">
            <mxPoint x="-1240" y="660" as="sourcePoint" />
            <mxPoint x="-980.0000000000005" y="590" as="targetPoint" />
            <Array as="points" />
          </mxGeometry>
        </mxCell>
        <mxCell id="bBOsbKYcq548n3KxFtVK-8" value="" style="endArrow=none;html=1;rounded=0;" parent="1" target="bBOsbKYcq548n3KxFtVK-9" edge="1">
          <mxGeometry width="50" height="50" relative="1" as="geometry">
            <mxPoint x="-850" y="710.95" as="sourcePoint" />
            <mxPoint x="-850" y="630.95" as="targetPoint" />
          </mxGeometry>
        </mxCell>
        <mxCell id="bBOsbKYcq548n3KxFtVK-9" value="IS A" style="triangle;whiteSpace=wrap;html=1;rotation=-90;direction=east;" parent="1" vertex="1">
          <mxGeometry x="-882.5" y="640.95" width="65" height="130" as="geometry" />
        </mxCell>
        <mxCell id="bBOsbKYcq548n3KxFtVK-10" value="" style="endArrow=none;html=1;rounded=0;exitX=1;exitY=0.5;exitDx=0;exitDy=0;entryX=0.5;entryY=1;entryDx=0;entryDy=0;" parent="1" source="bBOsbKYcq548n3KxFtVK-9" target="bBOsbKYcq548n3KxFtVK-1" edge="1">
          <mxGeometry width="50" height="50" relative="1" as="geometry">
            <mxPoint x="-870" y="680.95" as="sourcePoint" />
            <mxPoint x="-820" y="630.95" as="targetPoint" />
          </mxGeometry>
        </mxCell>
        <mxCell id="bBOsbKYcq548n3KxFtVK-11" value="" style="endArrow=none;html=1;rounded=0;" parent="1" edge="1">
          <mxGeometry width="50" height="50" relative="1" as="geometry">
            <mxPoint x="-890" y="570.95" as="sourcePoint" />
            <mxPoint x="-930" y="540.95" as="targetPoint" />
          </mxGeometry>
        </mxCell>
        <mxCell id="bBOsbKYcq548n3KxFtVK-12" value="" style="endArrow=none;html=1;rounded=0;" parent="1" edge="1">
          <mxGeometry width="50" height="50" relative="1" as="geometry">
            <mxPoint x="-830" y="570.95" as="sourcePoint" />
            <mxPoint x="-801.2132034356061" y="542.163203435606" as="targetPoint" />
          </mxGeometry>
        </mxCell>
        <mxCell id="bBOsbKYcq548n3KxFtVK-15" value="&lt;u&gt;EID&lt;/u&gt;" style="ellipse;whiteSpace=wrap;html=1;" parent="1" vertex="1">
          <mxGeometry x="-1000" y="480.95" width="110" height="60" as="geometry" />
        </mxCell>
        <mxCell id="bBOsbKYcq548n3KxFtVK-16" value="name" style="ellipse;whiteSpace=wrap;html=1;" parent="1" vertex="1">
          <mxGeometry x="-850" y="480.95" width="110" height="60" as="geometry" />
        </mxCell>
        <mxCell id="bBOsbKYcq548n3KxFtVK-17" value="&lt;u&gt;DepName&lt;/u&gt;" style="ellipse;whiteSpace=wrap;html=1;" parent="1" vertex="1">
          <mxGeometry x="-1510" y="468.45" width="110" height="60" as="geometry" />
        </mxCell>
        <mxCell id="bBOsbKYcq548n3KxFtVK-18" value="description&amp;nbsp;" style="ellipse;whiteSpace=wrap;html=1;" parent="1" vertex="1">
          <mxGeometry x="-1340" y="468.45" width="110" height="60" as="geometry" />
        </mxCell>
        <mxCell id="bBOsbKYcq548n3KxFtVK-19" value="" style="endArrow=none;html=1;rounded=0;entryX=0.345;entryY=0.979;entryDx=0;entryDy=0;entryPerimeter=0;" parent="1" target="bBOsbKYcq548n3KxFtVK-18" edge="1">
          <mxGeometry width="50" height="50" relative="1" as="geometry">
            <mxPoint x="-1340" y="560" as="sourcePoint" />
            <mxPoint x="-1300" y="518.45" as="targetPoint" />
          </mxGeometry>
        </mxCell>
        <mxCell id="bBOsbKYcq548n3KxFtVK-20" value="" style="endArrow=none;html=1;rounded=0;entryX=0.5;entryY=1;entryDx=0;entryDy=0;exitX=0.25;exitY=0;exitDx=0;exitDy=0;" parent="1" source="bBOsbKYcq548n3KxFtVK-6" target="bBOsbKYcq548n3KxFtVK-17" edge="1">
          <mxGeometry width="50" height="50" relative="1" as="geometry">
            <mxPoint x="-1340" y="578.45" as="sourcePoint" />
            <mxPoint x="-1292.0500000000002" y="537.1899999999998" as="targetPoint" />
          </mxGeometry>
        </mxCell>
        <mxCell id="bBOsbKYcq548n3KxFtVK-23" value="" style="endArrow=none;html=1;rounded=0;entryX=0;entryY=0.25;entryDx=0;entryDy=0;exitX=1;exitY=0;exitDx=0;exitDy=0;" parent="1" source="bBOsbKYcq548n3KxFtVK-27" target="bBOsbKYcq548n3KxFtVK-9" edge="1">
          <mxGeometry width="50" height="50" relative="1" as="geometry">
            <mxPoint x="-920" y="800.95" as="sourcePoint" />
            <mxPoint x="-860" y="730.95" as="targetPoint" />
          </mxGeometry>
        </mxCell>
        <mxCell id="bBOsbKYcq548n3KxFtVK-24" value="" style="endArrow=none;html=1;rounded=0;entryX=0;entryY=0.75;entryDx=0;entryDy=0;" parent="1" target="bBOsbKYcq548n3KxFtVK-9" edge="1">
          <mxGeometry width="50" height="50" relative="1" as="geometry">
            <mxPoint x="-760" y="770" as="sourcePoint" />
            <mxPoint x="-835" y="730.95" as="targetPoint" />
          </mxGeometry>
        </mxCell>
        <mxCell id="bBOsbKYcq548n3KxFtVK-25" value="Overleap" style="text;html=1;resizable=0;autosize=1;align=center;verticalAlign=middle;points=[];fillColor=none;strokeColor=none;rounded=0;" parent="1" vertex="1">
          <mxGeometry x="-885" y="750.95" width="70" height="30" as="geometry" />
        </mxCell>
        <mxCell id="bBOsbKYcq548n3KxFtVK-26" value="TechExpert" style="rounded=0;whiteSpace=wrap;html=1;" parent="1" vertex="1">
          <mxGeometry x="-809.9999999999998" y="770.95" width="120" height="60" as="geometry" />
        </mxCell>
        <mxCell id="bBOsbKYcq548n3KxFtVK-27" value="manger" style="rounded=0;whiteSpace=wrap;html=1;" parent="1" vertex="1">
          <mxGeometry x="-1069.9999999999998" y="793.45" width="120" height="60" as="geometry" />
        </mxCell>
        <mxCell id="bBOsbKYcq548n3KxFtVK-28" value="Mange by" style="rhombus;whiteSpace=wrap;html=1;" parent="1" vertex="1">
          <mxGeometry x="-1320" y="650" width="80" height="80" as="geometry" />
        </mxCell>
        <mxCell id="bBOsbKYcq548n3KxFtVK-29" value="" style="endArrow=none;html=1;rounded=0;entryX=1;entryY=0.5;entryDx=0;entryDy=0;exitX=0;exitY=0;exitDx=0;exitDy=0;fontSize=100;horizontal=1;fontStyle=1;strokeWidth=1;verticalAlign=middle;endFill=0;startArrow=none;startFill=0;" parent="1" source="bBOsbKYcq548n3KxFtVK-27" target="bBOsbKYcq548n3KxFtVK-28" edge="1">
          <mxGeometry width="50" height="50" relative="1" as="geometry">
            <mxPoint x="-650" y="835.95" as="sourcePoint" />
            <mxPoint x="-607.5" y="770.95" as="targetPoint" />
          </mxGeometry>
        </mxCell>
        <mxCell id="bBOsbKYcq548n3KxFtVK-30" value="" style="endArrow=none;html=1;rounded=0;entryX=0.75;entryY=1;entryDx=0;entryDy=0;startArrow=classic;startFill=1;strokeWidth=3;" parent="1" source="bBOsbKYcq548n3KxFtVK-28" target="bBOsbKYcq548n3KxFtVK-6" edge="1">
          <mxGeometry width="50" height="50" relative="1" as="geometry">
            <mxPoint x="-1030" y="695" as="sourcePoint" />
            <mxPoint x="-980.0000000000005" y="620" as="targetPoint" />
          </mxGeometry>
        </mxCell>
        <mxCell id="bBOsbKYcq548n3KxFtVK-31" value="" style="endArrow=none;html=1;rounded=0;entryX=0;entryY=0.5;entryDx=0;entryDy=0;" parent="1" target="bBOsbKYcq548n3KxFtVK-32" edge="1">
          <mxGeometry width="50" height="50" relative="1" as="geometry">
            <mxPoint x="-690" y="801.1300000000001" as="sourcePoint" />
            <mxPoint x="-620" y="800.1800000000001" as="targetPoint" />
          </mxGeometry>
        </mxCell>
        <mxCell id="bBOsbKYcq548n3KxFtVK-32" value="ExpertSection" style="ellipse;whiteSpace=wrap;html=1;" parent="1" vertex="1">
          <mxGeometry x="-580" y="760.95" width="120" height="80" as="geometry" />
        </mxCell>
        <mxCell id="bBOsbKYcq548n3KxFtVK-35" value="" style="endArrow=none;html=1;rounded=0;exitX=1;exitY=0;exitDx=0;exitDy=0;entryX=0;entryY=0.75;entryDx=0;entryDy=0;" parent="1" source="bBOsbKYcq548n3KxFtVK-36" target="bBOsbKYcq548n3KxFtVK-27" edge="1">
          <mxGeometry width="50" height="50" relative="1" as="geometry">
            <mxPoint x="-1030" y="850" as="sourcePoint" />
            <mxPoint x="-1010" y="840" as="targetPoint" />
          </mxGeometry>
        </mxCell>
        <mxCell id="bBOsbKYcq548n3KxFtVK-36" value="Salary" style="ellipse;whiteSpace=wrap;html=1;fontSize=12;" parent="1" vertex="1">
          <mxGeometry x="-1150" y="850" width="80" height="50" as="geometry" />
        </mxCell>
        <mxCell id="bBOsbKYcq548n3KxFtVK-46" style="edgeStyle=none;rounded=0;orthogonalLoop=1;jettySize=auto;html=1;exitX=1;exitY=0.5;exitDx=0;exitDy=0;strokeWidth=3;fontSize=12;endArrow=none;endFill=0;" parent="1" source="bBOsbKYcq548n3KxFtVK-37" edge="1">
          <mxGeometry relative="1" as="geometry">
            <mxPoint x="790" y="560.95" as="targetPoint" />
          </mxGeometry>
        </mxCell>
        <mxCell id="bBOsbKYcq548n3KxFtVK-62" style="edgeStyle=none;rounded=0;orthogonalLoop=1;jettySize=auto;html=1;exitX=0.5;exitY=1;exitDx=0;exitDy=0;strokeWidth=1;fontSize=12;endArrow=none;endFill=0;" parent="1" source="bBOsbKYcq548n3KxFtVK-37" edge="1">
          <mxGeometry relative="1" as="geometry">
            <mxPoint x="670" y="650.95" as="targetPoint" />
          </mxGeometry>
        </mxCell>
        <mxCell id="bBOsbKYcq548n3KxFtVK-74" style="edgeStyle=none;rounded=0;orthogonalLoop=1;jettySize=auto;html=1;exitX=0;exitY=0.5;exitDx=0;exitDy=0;strokeWidth=1;fontSize=12;endArrow=none;endFill=0;" parent="1" source="bBOsbKYcq548n3KxFtVK-37" edge="1">
          <mxGeometry relative="1" as="geometry">
            <mxPoint x="500" y="560.95" as="targetPoint" />
          </mxGeometry>
        </mxCell>
        <mxCell id="bBOsbKYcq548n3KxFtVK-37" value="Family" style="rounded=0;whiteSpace=wrap;html=1;" parent="1" vertex="1">
          <mxGeometry x="610.0000000000002" y="530.95" width="120" height="60" as="geometry" />
        </mxCell>
        <mxCell id="bBOsbKYcq548n3KxFtVK-38" value="Rate" style="ellipse;whiteSpace=wrap;html=1;fontSize=12;" parent="1" vertex="1">
          <mxGeometry x="505" y="450.95" width="75" height="50" as="geometry" />
        </mxCell>
        <mxCell id="bBOsbKYcq548n3KxFtVK-39" value="&lt;u&gt;FamNum&lt;/u&gt;" style="ellipse;whiteSpace=wrap;html=1;fontSize=12;" parent="1" vertex="1">
          <mxGeometry x="580" y="418.45" width="75" height="50" as="geometry" />
        </mxCell>
        <mxCell id="bBOsbKYcq548n3KxFtVK-40" value="Last name" style="ellipse;whiteSpace=wrap;html=1;fontSize=12;" parent="1" vertex="1">
          <mxGeometry x="670" y="450.95" width="75" height="50" as="geometry" />
        </mxCell>
        <mxCell id="bBOsbKYcq548n3KxFtVK-42" value="" style="endArrow=none;html=1;rounded=0;strokeWidth=1;fontSize=12;exitX=0.5;exitY=0;exitDx=0;exitDy=0;entryX=0.5;entryY=1;entryDx=0;entryDy=0;" parent="1" source="bBOsbKYcq548n3KxFtVK-37" target="bBOsbKYcq548n3KxFtVK-39" edge="1">
          <mxGeometry width="50" height="50" relative="1" as="geometry">
            <mxPoint x="640" y="530.95" as="sourcePoint" />
            <mxPoint x="690" y="480.95" as="targetPoint" />
          </mxGeometry>
        </mxCell>
        <mxCell id="bBOsbKYcq548n3KxFtVK-43" value="" style="endArrow=none;html=1;rounded=0;strokeWidth=1;fontSize=12;exitX=0.25;exitY=0;exitDx=0;exitDy=0;entryX=1;entryY=1;entryDx=0;entryDy=0;" parent="1" source="bBOsbKYcq548n3KxFtVK-37" target="bBOsbKYcq548n3KxFtVK-38" edge="1">
          <mxGeometry width="50" height="50" relative="1" as="geometry">
            <mxPoint x="680" y="540.95" as="sourcePoint" />
            <mxPoint x="680" y="510.95" as="targetPoint" />
          </mxGeometry>
        </mxCell>
        <mxCell id="bBOsbKYcq548n3KxFtVK-44" value="" style="endArrow=none;html=1;rounded=0;strokeWidth=1;fontSize=12;exitX=0.75;exitY=0;exitDx=0;exitDy=0;entryX=0;entryY=1;entryDx=0;entryDy=0;" parent="1" source="bBOsbKYcq548n3KxFtVK-37" target="bBOsbKYcq548n3KxFtVK-40" edge="1">
          <mxGeometry width="50" height="50" relative="1" as="geometry">
            <mxPoint x="790.79" y="530.95" as="sourcePoint" />
            <mxPoint x="719.9965793931069" y="493.5000378868987" as="targetPoint" />
          </mxGeometry>
        </mxCell>
        <mxCell id="bBOsbKYcq548n3KxFtVK-47" value="Part of" style="rhombus;whiteSpace=wrap;html=1;fontSize=12;strokeWidth=3;" parent="1" vertex="1">
          <mxGeometry x="780" y="520.95" width="80" height="80" as="geometry" />
        </mxCell>
        <mxCell id="bBOsbKYcq548n3KxFtVK-48" value="" style="endArrow=none;html=1;rounded=0;strokeWidth=3;fontSize=12;exitX=1;exitY=0.5;exitDx=0;exitDy=0;endFill=0;startArrow=classic;startFill=1;" parent="1" source="bBOsbKYcq548n3KxFtVK-47" edge="1">
          <mxGeometry width="50" height="50" relative="1" as="geometry">
            <mxPoint x="850" y="580.95" as="sourcePoint" />
            <mxPoint x="970" y="560.95" as="targetPoint" />
          </mxGeometry>
        </mxCell>
        <mxCell id="bBOsbKYcq548n3KxFtVK-53" style="edgeStyle=none;rounded=0;orthogonalLoop=1;jettySize=auto;html=1;exitX=0.25;exitY=0;exitDx=0;exitDy=0;entryX=1;entryY=1;entryDx=0;entryDy=0;strokeWidth=1;fontSize=12;endArrow=none;endFill=0;" parent="1" source="bBOsbKYcq548n3KxFtVK-49" target="bBOsbKYcq548n3KxFtVK-50" edge="1">
          <mxGeometry relative="1" as="geometry" />
        </mxCell>
        <mxCell id="bBOsbKYcq548n3KxFtVK-54" style="edgeStyle=none;rounded=0;orthogonalLoop=1;jettySize=auto;html=1;exitX=0.5;exitY=0;exitDx=0;exitDy=0;entryX=0.5;entryY=1;entryDx=0;entryDy=0;strokeWidth=1;fontSize=12;endArrow=none;endFill=0;" parent="1" source="bBOsbKYcq548n3KxFtVK-49" target="bBOsbKYcq548n3KxFtVK-51" edge="1">
          <mxGeometry relative="1" as="geometry" />
        </mxCell>
        <mxCell id="bBOsbKYcq548n3KxFtVK-55" style="edgeStyle=none;rounded=0;orthogonalLoop=1;jettySize=auto;html=1;exitX=0.75;exitY=0;exitDx=0;exitDy=0;strokeWidth=1;fontSize=12;endArrow=none;endFill=0;" parent="1" source="bBOsbKYcq548n3KxFtVK-49" target="bBOsbKYcq548n3KxFtVK-52" edge="1">
          <mxGeometry relative="1" as="geometry" />
        </mxCell>
        <mxCell id="bBOsbKYcq548n3KxFtVK-49" value="FamilyGuy" style="rounded=0;whiteSpace=wrap;html=1;fontSize=12;strokeWidth=3;" parent="1" vertex="1">
          <mxGeometry x="970" y="530.95" width="120" height="60" as="geometry" />
        </mxCell>
        <mxCell id="bBOsbKYcq548n3KxFtVK-50" value="Phone" style="ellipse;whiteSpace=wrap;html=1;fontSize=12;" parent="1" vertex="1">
          <mxGeometry x="910" y="450.95" width="60" height="50" as="geometry" />
        </mxCell>
        <mxCell id="bBOsbKYcq548n3KxFtVK-51" value="FirstName" style="ellipse;whiteSpace=wrap;html=1;fontSize=12;" parent="1" vertex="1">
          <mxGeometry x="1000" y="450.95" width="60" height="50" as="geometry" />
        </mxCell>
        <mxCell id="bBOsbKYcq548n3KxFtVK-52" value="Date of birth" style="ellipse;whiteSpace=wrap;html=1;fontSize=12;" parent="1" vertex="1">
          <mxGeometry x="1090" y="450.95" width="60" height="50" as="geometry" />
        </mxCell>
        <mxCell id="bBOsbKYcq548n3KxFtVK-67" style="edgeStyle=none;rounded=0;orthogonalLoop=1;jettySize=auto;html=1;exitX=0;exitY=0.75;exitDx=0;exitDy=0;strokeWidth=1;fontSize=12;endArrow=none;endFill=0;" parent="1" source="bBOsbKYcq548n3KxFtVK-64" edge="1">
          <mxGeometry relative="1" as="geometry">
            <mxPoint x="747.9750830564785" y="780.9749169435215" as="targetPoint" />
          </mxGeometry>
        </mxCell>
        <mxCell id="bBOsbKYcq548n3KxFtVK-69" style="edgeStyle=none;rounded=0;orthogonalLoop=1;jettySize=auto;html=1;exitX=0;exitY=0.25;exitDx=0;exitDy=0;strokeWidth=1;fontSize=12;endArrow=none;endFill=0;" parent="1" source="bBOsbKYcq548n3KxFtVK-64" edge="1">
          <mxGeometry relative="1" as="geometry">
            <mxPoint x="590" y="780.95" as="targetPoint" />
          </mxGeometry>
        </mxCell>
        <mxCell id="bBOsbKYcq548n3KxFtVK-64" value="IS A" style="triangle;whiteSpace=wrap;html=1;rotation=-90;" parent="1" vertex="1">
          <mxGeometry x="637.5" y="610.95" width="65" height="130" as="geometry" />
        </mxCell>
        <mxCell id="bBOsbKYcq548n3KxFtVK-65" value="Cover" style="text;html=1;align=center;verticalAlign=middle;resizable=0;points=[];autosize=1;strokeColor=none;fillColor=none;fontSize=12;" parent="1" vertex="1">
          <mxGeometry x="640" y="720.95" width="60" height="30" as="geometry" />
        </mxCell>
        <mxCell id="bBOsbKYcq548n3KxFtVK-92" style="edgeStyle=none;rounded=0;orthogonalLoop=1;jettySize=auto;html=1;exitX=0.25;exitY=1;exitDx=0;exitDy=0;strokeWidth=3;fontSize=12;endArrow=classic;endFill=1;entryX=1;entryY=0.5;entryDx=0;entryDy=0;startArrow=none;startFill=0;" parent="1" source="bBOsbKYcq548n3KxFtVK-70" target="bBOsbKYcq548n3KxFtVK-93" edge="1">
          <mxGeometry relative="1" as="geometry">
            <mxPoint x="40" y="1029.0369565217395" as="targetPoint" />
          </mxGeometry>
        </mxCell>
        <mxCell id="bBOsbKYcq548n3KxFtVK-70" value="Premium" style="rounded=0;whiteSpace=wrap;html=1;fontSize=12;" parent="1" vertex="1">
          <mxGeometry x="520" y="770.95" width="120" height="60" as="geometry" />
        </mxCell>
        <mxCell id="bBOsbKYcq548n3KxFtVK-139" style="edgeStyle=none;rounded=0;orthogonalLoop=1;jettySize=auto;html=1;exitX=0.25;exitY=1;exitDx=0;exitDy=0;strokeWidth=3;fontSize=12;startArrow=none;startFill=0;endArrow=classic;endFill=1;entryX=1;entryY=0.5;entryDx=0;entryDy=0;" parent="1" source="bBOsbKYcq548n3KxFtVK-72" target="bBOsbKYcq548n3KxFtVK-140" edge="1">
          <mxGeometry relative="1" as="geometry">
            <mxPoint x="-65.37097559279619" y="1530" as="targetPoint" />
          </mxGeometry>
        </mxCell>
        <mxCell id="bBOsbKYcq548n3KxFtVK-72" value="Regular" style="rounded=0;whiteSpace=wrap;html=1;fontSize=12;" parent="1" vertex="1">
          <mxGeometry x="700" y="780.95" width="120" height="60" as="geometry" />
        </mxCell>
        <mxCell id="bBOsbKYcq548n3KxFtVK-77" style="edgeStyle=none;rounded=0;orthogonalLoop=1;jettySize=auto;html=1;strokeWidth=3;fontSize=12;endArrow=none;endFill=0;startArrow=classic;startFill=1;" parent="1" edge="1">
          <mxGeometry relative="1" as="geometry">
            <mxPoint x="370" y="560.95" as="targetPoint" />
            <mxPoint x="430" y="561" as="sourcePoint" />
          </mxGeometry>
        </mxCell>
        <mxCell id="blgtO5f3Ezok3y8Z0S_8-1" value="" style="edgeStyle=orthogonalEdgeStyle;rounded=0;orthogonalLoop=1;jettySize=auto;html=1;strokeWidth=3;endArrow=none;endFill=0;" parent="1" source="bBOsbKYcq548n3KxFtVK-75" target="bBOsbKYcq548n3KxFtVK-37" edge="1">
          <mxGeometry relative="1" as="geometry" />
        </mxCell>
        <mxCell id="bBOsbKYcq548n3KxFtVK-75" value="have a" style="rhombus;whiteSpace=wrap;html=1;fontSize=12;rounded=1;strokeWidth=3;" parent="1" vertex="1">
          <mxGeometry x="425" y="520.95" width="80" height="80" as="geometry" />
        </mxCell>
        <mxCell id="bBOsbKYcq548n3KxFtVK-80" style="edgeStyle=none;rounded=0;orthogonalLoop=1;jettySize=auto;html=1;exitX=0.5;exitY=0;exitDx=0;exitDy=0;strokeWidth=1;fontSize=12;endArrow=none;endFill=0;" parent="1" source="bBOsbKYcq548n3KxFtVK-78" edge="1">
          <mxGeometry relative="1" as="geometry">
            <mxPoint x="320" y="500.95" as="targetPoint" />
          </mxGeometry>
        </mxCell>
        <mxCell id="bBOsbKYcq548n3KxFtVK-83" value="" style="edgeStyle=none;rounded=0;orthogonalLoop=1;jettySize=auto;html=1;strokeWidth=3;fontSize=12;endArrow=none;endFill=0;" parent="1" source="bBOsbKYcq548n3KxFtVK-78" target="bBOsbKYcq548n3KxFtVK-82" edge="1">
          <mxGeometry relative="1" as="geometry" />
        </mxCell>
        <mxCell id="bBOsbKYcq548n3KxFtVK-124" value="" style="edgeStyle=none;rounded=0;orthogonalLoop=1;jettySize=auto;html=1;strokeWidth=1;fontSize=12;endArrow=classic;endFill=1;" parent="1" source="bBOsbKYcq548n3KxFtVK-78" target="bBOsbKYcq548n3KxFtVK-123" edge="1">
          <mxGeometry relative="1" as="geometry" />
        </mxCell>
        <mxCell id="bBOsbKYcq548n3KxFtVK-78" value="Stramer" style="rounded=0;whiteSpace=wrap;html=1;fontSize=12;strokeWidth=3;" parent="1" vertex="1">
          <mxGeometry x="270" y="530.95" width="100" height="60" as="geometry" />
        </mxCell>
        <mxCell id="bBOsbKYcq548n3KxFtVK-81" value="StreamerNumber" style="ellipse;whiteSpace=wrap;html=1;fontSize=12;" parent="1" vertex="1">
          <mxGeometry x="260" y="440.95" width="115" height="60" as="geometry" />
        </mxCell>
        <mxCell id="bBOsbKYcq548n3KxFtVK-85" value="" style="edgeStyle=none;rounded=0;orthogonalLoop=1;jettySize=auto;html=1;strokeWidth=1;fontSize=12;endArrow=none;endFill=0;" parent="1" source="bBOsbKYcq548n3KxFtVK-82" target="bBOsbKYcq548n3KxFtVK-84" edge="1">
          <mxGeometry relative="1" as="geometry" />
        </mxCell>
        <mxCell id="bBOsbKYcq548n3KxFtVK-82" value="Show on" style="rhombus;whiteSpace=wrap;html=1;rounded=0;" parent="1" vertex="1">
          <mxGeometry x="100" y="520.95" width="80" height="80" as="geometry" />
        </mxCell>
        <mxCell id="bBOsbKYcq548n3KxFtVK-87" value="" style="edgeStyle=none;rounded=0;orthogonalLoop=1;jettySize=auto;html=1;strokeWidth=1;fontSize=12;endArrow=none;endFill=0;" parent="1" source="bBOsbKYcq548n3KxFtVK-84" target="bBOsbKYcq548n3KxFtVK-86" edge="1">
          <mxGeometry relative="1" as="geometry" />
        </mxCell>
        <mxCell id="bBOsbKYcq548n3KxFtVK-89" style="edgeStyle=none;rounded=0;orthogonalLoop=1;jettySize=auto;html=1;exitX=0.5;exitY=1;exitDx=0;exitDy=0;entryX=0.5;entryY=0;entryDx=0;entryDy=0;strokeWidth=1;fontSize=12;endArrow=none;endFill=0;" parent="1" source="bBOsbKYcq548n3KxFtVK-84" target="bBOsbKYcq548n3KxFtVK-88" edge="1">
          <mxGeometry relative="1" as="geometry" />
        </mxCell>
        <mxCell id="bBOsbKYcq548n3KxFtVK-96" value="" style="edgeStyle=none;rounded=0;orthogonalLoop=1;jettySize=auto;html=1;strokeWidth=3;fontSize=12;endArrow=none;endFill=0;exitX=0.5;exitY=1;exitDx=0;exitDy=0;" parent="1" source="bBOsbKYcq548n3KxFtVK-84" target="bBOsbKYcq548n3KxFtVK-95" edge="1">
          <mxGeometry relative="1" as="geometry">
            <mxPoint x="-110" y="600" as="sourcePoint" />
          </mxGeometry>
        </mxCell>
        <mxCell id="bBOsbKYcq548n3KxFtVK-84" value="Channel" style="whiteSpace=wrap;html=1;rounded=0;" parent="1" vertex="1">
          <mxGeometry x="-80" y="530.95" width="120" height="60" as="geometry" />
        </mxCell>
        <mxCell id="bBOsbKYcq548n3KxFtVK-86" value="ChannelName" style="ellipse;whiteSpace=wrap;html=1;rounded=0;" parent="1" vertex="1">
          <mxGeometry x="-140" y="430.95" width="110" height="40" as="geometry" />
        </mxCell>
        <mxCell id="bBOsbKYcq548n3KxFtVK-88" value="&lt;u&gt;ChannelNumber&lt;/u&gt;" style="ellipse;whiteSpace=wrap;html=1;rounded=0;fontSize=12;" parent="1" vertex="1">
          <mxGeometry x="-10" y="430.95" width="100" height="40" as="geometry" />
        </mxCell>
        <mxCell id="bBOsbKYcq548n3KxFtVK-94" style="edgeStyle=none;rounded=0;orthogonalLoop=1;jettySize=auto;html=1;exitX=0;exitY=0.5;exitDx=0;exitDy=0;entryX=0;entryY=1;entryDx=0;entryDy=0;strokeWidth=1;fontSize=12;endArrow=none;endFill=0;" parent="1" source="bBOsbKYcq548n3KxFtVK-93" target="bBOsbKYcq548n3KxFtVK-26" edge="1">
          <mxGeometry relative="1" as="geometry" />
        </mxCell>
        <mxCell id="bBOsbKYcq548n3KxFtVK-93" value="Working with" style="rhombus;whiteSpace=wrap;html=1;fontSize=12;" parent="1" vertex="1">
          <mxGeometry x="-160" y="1370.95" width="80" height="80" as="geometry" />
        </mxCell>
        <mxCell id="bBOsbKYcq548n3KxFtVK-95" value="Streaming on" style="rhombus;whiteSpace=wrap;html=1;rounded=0;strokeWidth=3;" parent="1" vertex="1">
          <mxGeometry x="-180" y="628.45" width="80" height="80" as="geometry" />
        </mxCell>
        <mxCell id="bBOsbKYcq548n3KxFtVK-97" value="" style="endArrow=classic;html=1;rounded=0;strokeWidth=3;fontSize=12;entryX=1;entryY=1;entryDx=0;entryDy=0;startArrow=none;startFill=0;endFill=1;" parent="1" source="bBOsbKYcq548n3KxFtVK-98" target="bBOsbKYcq548n3KxFtVK-95" edge="1">
          <mxGeometry width="50" height="50" relative="1" as="geometry">
            <mxPoint x="-40" y="728.45" as="sourcePoint" />
            <mxPoint x="-60" y="668.45" as="targetPoint" />
          </mxGeometry>
        </mxCell>
        <mxCell id="bBOsbKYcq548n3KxFtVK-100" value="" style="edgeStyle=none;rounded=0;orthogonalLoop=1;jettySize=auto;html=1;strokeWidth=1;fontSize=12;endArrow=none;endFill=0;" parent="1" source="bBOsbKYcq548n3KxFtVK-98" target="bBOsbKYcq548n3KxFtVK-99" edge="1">
          <mxGeometry relative="1" as="geometry" />
        </mxCell>
        <mxCell id="bBOsbKYcq548n3KxFtVK-102" style="edgeStyle=none;rounded=0;orthogonalLoop=1;jettySize=auto;html=1;exitX=0.5;exitY=0;exitDx=0;exitDy=0;entryX=0.5;entryY=1;entryDx=0;entryDy=0;strokeWidth=1;fontSize=12;endArrow=none;endFill=0;" parent="1" source="bBOsbKYcq548n3KxFtVK-98" target="bBOsbKYcq548n3KxFtVK-101" edge="1">
          <mxGeometry relative="1" as="geometry" />
        </mxCell>
        <mxCell id="bBOsbKYcq548n3KxFtVK-106" style="edgeStyle=none;rounded=0;orthogonalLoop=1;jettySize=auto;html=1;exitX=1;exitY=0;exitDx=0;exitDy=0;strokeWidth=1;fontSize=12;endArrow=none;endFill=0;entryX=0.349;entryY=0.94;entryDx=0;entryDy=0;entryPerimeter=0;" parent="1" source="bBOsbKYcq548n3KxFtVK-98" target="bBOsbKYcq548n3KxFtVK-107" edge="1">
          <mxGeometry relative="1" as="geometry">
            <mxPoint x="88.22784810126632" y="696.45" as="targetPoint" />
          </mxGeometry>
        </mxCell>
        <mxCell id="bBOsbKYcq548n3KxFtVK-98" value="Show" style="rounded=0;whiteSpace=wrap;html=1;fontSize=12;strokeWidth=3;" parent="1" vertex="1">
          <mxGeometry x="-90" y="738.45" width="120" height="55" as="geometry" />
        </mxCell>
        <mxCell id="bBOsbKYcq548n3KxFtVK-99" value="ShowName" style="ellipse;whiteSpace=wrap;html=1;rounded=0;" parent="1" vertex="1">
          <mxGeometry x="-90" y="683.45" width="70" height="27.5" as="geometry" />
        </mxCell>
        <mxCell id="bBOsbKYcq548n3KxFtVK-101" value="Genere" style="ellipse;whiteSpace=wrap;html=1;rounded=0;" parent="1" vertex="1">
          <mxGeometry x="-65" y="630.95" width="70" height="27.5" as="geometry" />
        </mxCell>
        <mxCell id="bBOsbKYcq548n3KxFtVK-107" value="Length" style="ellipse;whiteSpace=wrap;html=1;rounded=0;" parent="1" vertex="1">
          <mxGeometry x="-10" y="660.95" width="70" height="27.5" as="geometry" />
        </mxCell>
        <mxCell id="bBOsbKYcq548n3KxFtVK-111" style="edgeStyle=none;rounded=0;orthogonalLoop=1;jettySize=auto;html=1;exitX=0.5;exitY=0;exitDx=0;exitDy=0;entryX=0.5;entryY=1;entryDx=0;entryDy=0;strokeWidth=3;fontSize=12;endArrow=none;endFill=0;startArrow=classic;startFill=1;" parent="1" source="bBOsbKYcq548n3KxFtVK-108" target="bBOsbKYcq548n3KxFtVK-110" edge="1">
          <mxGeometry relative="1" as="geometry" />
        </mxCell>
        <mxCell id="bBOsbKYcq548n3KxFtVK-108" value="ShowingTime" style="whiteSpace=wrap;html=1;rounded=0;strokeWidth=3;" parent="1" vertex="1">
          <mxGeometry x="-490" y="644.7" width="120" height="60" as="geometry" />
        </mxCell>
        <mxCell id="bBOsbKYcq548n3KxFtVK-110" value="ShowiTime" style="ellipse;whiteSpace=wrap;html=1;rounded=0;fontSize=12;strokeWidth=3;" parent="1" vertex="1">
          <mxGeometry x="-440" y="550" width="80" height="48.45" as="geometry" />
        </mxCell>
        <mxCell id="bBOsbKYcq548n3KxFtVK-117" style="edgeStyle=none;rounded=0;orthogonalLoop=1;jettySize=auto;html=1;exitX=1;exitY=0;exitDx=0;exitDy=0;strokeWidth=1;fontSize=12;endArrow=none;endFill=0;" parent="1" source="bBOsbKYcq548n3KxFtVK-114" edge="1">
          <mxGeometry relative="1" as="geometry">
            <mxPoint x="219.0476190476188" y="159.99761904761903" as="targetPoint" />
          </mxGeometry>
        </mxCell>
        <mxCell id="bBOsbKYcq548n3KxFtVK-114" value="Moving to" style="rhombus;whiteSpace=wrap;html=1;fontSize=12;" parent="1" vertex="1">
          <mxGeometry x="125" y="170.95" width="80" height="80" as="geometry" />
        </mxCell>
        <mxCell id="bBOsbKYcq548n3KxFtVK-122" style="edgeStyle=none;rounded=0;orthogonalLoop=1;jettySize=auto;html=1;exitX=1;exitY=1;exitDx=0;exitDy=0;entryX=0;entryY=0;entryDx=0;entryDy=0;strokeWidth=1;fontSize=12;endArrow=none;endFill=0;" parent="1" source="bBOsbKYcq548n3KxFtVK-118" target="bBOsbKYcq548n3KxFtVK-121" edge="1">
          <mxGeometry relative="1" as="geometry">
            <mxPoint x="292.5" y="190.95" as="sourcePoint" />
          </mxGeometry>
        </mxCell>
        <mxCell id="bBOsbKYcq548n3KxFtVK-118" value="Moving channel" style="rounded=0;whiteSpace=wrap;html=1;fontSize=12;" parent="1" vertex="1">
          <mxGeometry x="220" y="140" width="70" height="40" as="geometry" />
        </mxCell>
        <mxCell id="bBOsbKYcq548n3KxFtVK-119" value="" style="endArrow=none;html=1;rounded=0;strokeWidth=1;fontSize=12;entryX=0.5;entryY=1;entryDx=0;entryDy=0;" parent="1" edge="1">
          <mxGeometry width="50" height="50" relative="1" as="geometry">
            <mxPoint x="274.99999999999955" y="190.95" as="sourcePoint" />
            <mxPoint x="275" y="190.95" as="targetPoint" />
          </mxGeometry>
        </mxCell>
        <mxCell id="bBOsbKYcq548n3KxFtVK-121" value="&lt;u&gt;Time&lt;/u&gt;" style="ellipse;whiteSpace=wrap;html=1;fontSize=12;" parent="1" vertex="1">
          <mxGeometry x="330" y="210.95" width="70" height="50" as="geometry" />
        </mxCell>
        <mxCell id="bBOsbKYcq548n3KxFtVK-126" value="" style="edgeStyle=none;rounded=0;orthogonalLoop=1;jettySize=auto;html=1;strokeWidth=1;fontSize=12;endArrow=none;endFill=0;" parent="1" source="bBOsbKYcq548n3KxFtVK-123" target="bBOsbKYcq548n3KxFtVK-125" edge="1">
          <mxGeometry relative="1" as="geometry" />
        </mxCell>
        <mxCell id="bBOsbKYcq548n3KxFtVK-123" value="Broken" style="rhombus;whiteSpace=wrap;html=1;rounded=0;" parent="1" vertex="1">
          <mxGeometry x="280" y="660.95" width="80" height="80" as="geometry" />
        </mxCell>
        <mxCell id="bBOsbKYcq548n3KxFtVK-128" value="" style="edgeStyle=none;rounded=0;orthogonalLoop=1;jettySize=auto;html=1;strokeWidth=1;fontSize=12;endArrow=none;endFill=0;" parent="1" source="bBOsbKYcq548n3KxFtVK-125" target="bBOsbKYcq548n3KxFtVK-127" edge="1">
          <mxGeometry relative="1" as="geometry" />
        </mxCell>
        <mxCell id="bBOsbKYcq548n3KxFtVK-130" value="" style="edgeStyle=none;rounded=0;orthogonalLoop=1;jettySize=auto;html=1;strokeWidth=3;fontSize=12;endArrow=classic;endFill=1;entryX=1;entryY=0.5;entryDx=0;entryDy=0;" parent="1" source="bBOsbKYcq548n3KxFtVK-125" target="bBOsbKYcq548n3KxFtVK-129" edge="1">
          <mxGeometry relative="1" as="geometry" />
        </mxCell>
        <mxCell id="bBOsbKYcq548n3KxFtVK-125" value="Broke" style="whiteSpace=wrap;html=1;rounded=0;" parent="1" vertex="1">
          <mxGeometry x="260" y="830.95" width="120" height="60" as="geometry" />
        </mxCell>
        <mxCell id="bBOsbKYcq548n3KxFtVK-127" value="Price" style="ellipse;whiteSpace=wrap;html=1;rounded=0;" parent="1" vertex="1">
          <mxGeometry x="385" y="760.95" width="85" height="35" as="geometry" />
        </mxCell>
        <mxCell id="bBOsbKYcq548n3KxFtVK-131" style="edgeStyle=none;rounded=0;orthogonalLoop=1;jettySize=auto;html=1;exitX=0;exitY=0.5;exitDx=0;exitDy=0;entryX=0.75;entryY=1;entryDx=0;entryDy=0;strokeWidth=1;fontSize=12;endArrow=none;endFill=0;" parent="1" source="bBOsbKYcq548n3KxFtVK-129" target="bBOsbKYcq548n3KxFtVK-26" edge="1">
          <mxGeometry relative="1" as="geometry" />
        </mxCell>
        <mxCell id="bBOsbKYcq548n3KxFtVK-129" value="Fixed by" style="rhombus;whiteSpace=wrap;html=1;rounded=0;" parent="1" vertex="1">
          <mxGeometry x="-170" y="1260.95" width="80" height="70" as="geometry" />
        </mxCell>
        <mxCell id="bBOsbKYcq548n3KxFtVK-140" value="Quitting application" style="rhombus;whiteSpace=wrap;html=1;strokeWidth=1;fontSize=12;" parent="1" vertex="1">
          <mxGeometry x="-160" y="1490" width="80" height="80" as="geometry" />
        </mxCell>
        <mxCell id="bBOsbKYcq548n3KxFtVK-144" value="" style="endArrow=none;html=1;rounded=0;strokeWidth=1;fontSize=12;exitX=1;exitY=0;exitDx=0;exitDy=0;entryX=0.25;entryY=1;entryDx=0;entryDy=0;" parent="1" source="bBOsbKYcq548n3KxFtVK-145" target="bBOsbKYcq548n3KxFtVK-27" edge="1">
          <mxGeometry width="50" height="50" relative="1" as="geometry">
            <mxPoint x="-1050" y="1010" as="sourcePoint" />
            <mxPoint x="-980" y="890" as="targetPoint" />
          </mxGeometry>
        </mxCell>
        <mxCell id="bBOsbKYcq548n3KxFtVK-157" value="" style="edgeStyle=none;rounded=0;orthogonalLoop=1;jettySize=auto;html=1;strokeWidth=1;fontSize=12;startArrow=none;startFill=0;endArrow=none;endFill=0;" parent="1" source="bBOsbKYcq548n3KxFtVK-145" target="bBOsbKYcq548n3KxFtVK-156" edge="1">
          <mxGeometry relative="1" as="geometry" />
        </mxCell>
        <mxCell id="bBOsbKYcq548n3KxFtVK-145" value="Dont know" style="rhombus;whiteSpace=wrap;html=1;strokeWidth=1;fontSize=12;" parent="1" vertex="1">
          <mxGeometry x="-1120" y="940" width="80" height="80" as="geometry" />
        </mxCell>
        <mxCell id="bBOsbKYcq548n3KxFtVK-146" value="" style="endArrow=none;html=1;rounded=0;strokeWidth=1;fontSize=12;entryX=0;entryY=0.5;entryDx=0;entryDy=0;" parent="1" target="bBOsbKYcq548n3KxFtVK-145" edge="1">
          <mxGeometry width="50" height="50" relative="1" as="geometry">
            <mxPoint x="-1230" y="1000" as="sourcePoint" />
            <mxPoint x="-1100" y="1040" as="targetPoint" />
          </mxGeometry>
        </mxCell>
        <mxCell id="bBOsbKYcq548n3KxFtVK-149" value="" style="edgeStyle=none;rounded=0;orthogonalLoop=1;jettySize=auto;html=1;strokeWidth=1;fontSize=12;startArrow=none;startFill=0;endArrow=none;endFill=0;" parent="1" source="bBOsbKYcq548n3KxFtVK-147" target="bBOsbKYcq548n3KxFtVK-148" edge="1">
          <mxGeometry relative="1" as="geometry" />
        </mxCell>
        <mxCell id="bBOsbKYcq548n3KxFtVK-151" style="edgeStyle=none;rounded=0;orthogonalLoop=1;jettySize=auto;html=1;exitX=0;exitY=0;exitDx=0;exitDy=0;strokeWidth=1;fontSize=12;startArrow=none;startFill=0;endArrow=none;endFill=0;entryX=1;entryY=1;entryDx=0;entryDy=0;" parent="1" source="bBOsbKYcq548n3KxFtVK-147" target="bBOsbKYcq548n3KxFtVK-152" edge="1">
          <mxGeometry relative="1" as="geometry">
            <mxPoint x="-1380" y="956.6666666666665" as="targetPoint" />
          </mxGeometry>
        </mxCell>
        <mxCell id="bBOsbKYcq548n3KxFtVK-154" style="edgeStyle=none;rounded=0;orthogonalLoop=1;jettySize=auto;html=1;exitX=0.25;exitY=0;exitDx=0;exitDy=0;entryX=0.5;entryY=1;entryDx=0;entryDy=0;strokeWidth=1;fontSize=12;startArrow=none;startFill=0;endArrow=none;endFill=0;" parent="1" source="bBOsbKYcq548n3KxFtVK-147" target="bBOsbKYcq548n3KxFtVK-153" edge="1">
          <mxGeometry relative="1" as="geometry" />
        </mxCell>
        <mxCell id="bBOsbKYcq548n3KxFtVK-155" style="edgeStyle=none;rounded=0;orthogonalLoop=1;jettySize=auto;html=1;entryX=0.5;entryY=1;entryDx=0;entryDy=0;strokeWidth=1;fontSize=12;startArrow=none;startFill=0;endArrow=none;endFill=0;" parent="1" target="bBOsbKYcq548n3KxFtVK-140" edge="1">
          <mxGeometry relative="1" as="geometry">
            <Array as="points" />
            <mxPoint x="-880" y="1120" as="sourcePoint" />
          </mxGeometry>
        </mxCell>
        <mxCell id="bBOsbKYcq548n3KxFtVK-147" value="QuittingRequest" style="rounded=0;whiteSpace=wrap;html=1;strokeWidth=1;fontSize=12;" parent="1" vertex="1">
          <mxGeometry x="-1350" y="970" width="120" height="60" as="geometry" />
        </mxCell>
        <mxCell id="bBOsbKYcq548n3KxFtVK-148" value="&lt;u&gt;Date&lt;/u&gt;" style="ellipse;whiteSpace=wrap;html=1;rounded=0;strokeWidth=1;" parent="1" vertex="1">
          <mxGeometry x="-1510" y="980" width="80" height="50" as="geometry" />
        </mxCell>
        <mxCell id="bBOsbKYcq548n3KxFtVK-152" value="Reason" style="ellipse;whiteSpace=wrap;html=1;rounded=0;strokeWidth=1;" parent="1" vertex="1">
          <mxGeometry x="-1470" y="885.95" width="80" height="50" as="geometry" />
        </mxCell>
        <mxCell id="bBOsbKYcq548n3KxFtVK-153" value="Decision" style="ellipse;whiteSpace=wrap;html=1;rounded=0;strokeWidth=1;" parent="1" vertex="1">
          <mxGeometry x="-1350" y="880" width="80" height="50" as="geometry" />
        </mxCell>
        <mxCell id="bBOsbKYcq548n3KxFtVK-156" value="Reason" style="ellipse;whiteSpace=wrap;html=1;strokeWidth=1;" parent="1" vertex="1">
          <mxGeometry x="-950" y="1020" width="60" height="50" as="geometry" />
        </mxCell>
        <mxCell id="1M-xB1qmVmg-WDSUTMU_-1" value="" style="endArrow=none;dashed=1;html=1;rounded=0;" parent="1" edge="1">
          <mxGeometry width="50" height="50" relative="1" as="geometry">
            <mxPoint x="270" y="480" as="sourcePoint" />
            <mxPoint x="360" y="480" as="targetPoint" />
          </mxGeometry>
        </mxCell>
        <mxCell id="1M-xB1qmVmg-WDSUTMU_-2" value="" style="endArrow=none;dashed=1;html=1;rounded=0;" parent="1" edge="1">
          <mxGeometry width="50" height="50" relative="1" as="geometry">
            <mxPoint x="1010" y="488" as="sourcePoint" />
            <mxPoint x="1050" y="488" as="targetPoint" />
          </mxGeometry>
        </mxCell>
        <mxCell id="1M-xB1qmVmg-WDSUTMU_-3" value="" style="endArrow=none;dashed=1;html=1;rounded=0;strokeWidth=1;entryX=1;entryY=1;entryDx=0;entryDy=0;exitX=0;exitY=1;exitDx=0;exitDy=0;" parent="1" source="bBOsbKYcq548n3KxFtVK-99" target="bBOsbKYcq548n3KxFtVK-99" edge="1">
          <mxGeometry width="50" height="50" relative="1" as="geometry">
            <mxPoint x="-110" y="780" as="sourcePoint" />
            <mxPoint x="-60" y="730" as="targetPoint" />
          </mxGeometry>
        </mxCell>
        <mxCell id="1M-xB1qmVmg-WDSUTMU_-4" value="" style="endArrow=none;dashed=1;html=1;rounded=0;strokeWidth=1;entryX=0.938;entryY=0.722;entryDx=0;entryDy=0;entryPerimeter=0;exitX=-0.017;exitY=0.767;exitDx=0;exitDy=0;exitPerimeter=0;" parent="1" source="bBOsbKYcq548n3KxFtVK-110" target="bBOsbKYcq548n3KxFtVK-110" edge="1">
          <mxGeometry width="50" height="50" relative="1" as="geometry">
            <mxPoint x="-320" y="675" as="sourcePoint" />
            <mxPoint x="-260" y="650" as="targetPoint" />
          </mxGeometry>
        </mxCell>
        <mxCell id="1M-xB1qmVmg-WDSUTMU_-10" value="" style="endArrow=none;html=1;rounded=0;strokeWidth=1;entryX=0;entryY=1;entryDx=0;entryDy=0;" parent="1" target="bBOsbKYcq548n3KxFtVK-114" edge="1">
          <mxGeometry width="50" height="50" relative="1" as="geometry">
            <mxPoint x="110" y="360" as="sourcePoint" />
            <mxPoint x="-100" y="840" as="targetPoint" />
          </mxGeometry>
        </mxCell>
        <mxCell id="1M-xB1qmVmg-WDSUTMU_-11" value="" style="endArrow=none;html=1;rounded=0;strokeWidth=1;" parent="1" edge="1">
          <mxGeometry width="50" height="50" relative="1" as="geometry">
            <mxPoint x="-160" y="360" as="sourcePoint" />
            <mxPoint x="760" y="360" as="targetPoint" />
          </mxGeometry>
        </mxCell>
        <mxCell id="1M-xB1qmVmg-WDSUTMU_-12" value="" style="endArrow=none;html=1;rounded=0;strokeWidth=1;" parent="1" edge="1">
          <mxGeometry width="50" height="50" relative="1" as="geometry">
            <mxPoint x="759.29" y="600.95" as="sourcePoint" />
            <mxPoint x="759.29" y="360.95" as="targetPoint" />
          </mxGeometry>
        </mxCell>
        <mxCell id="1M-xB1qmVmg-WDSUTMU_-14" value="" style="endArrow=none;html=1;rounded=0;strokeWidth=1;" parent="1" edge="1">
          <mxGeometry width="50" height="50" relative="1" as="geometry">
            <mxPoint x="-160" y="600" as="sourcePoint" />
            <mxPoint x="760" y="600" as="targetPoint" />
          </mxGeometry>
        </mxCell>
        <mxCell id="1M-xB1qmVmg-WDSUTMU_-15" value="" style="endArrow=none;html=1;rounded=0;strokeWidth=1;" parent="1" edge="1">
          <mxGeometry width="50" height="50" relative="1" as="geometry">
            <mxPoint x="-160" y="600" as="sourcePoint" />
            <mxPoint x="-160" y="360" as="targetPoint" />
          </mxGeometry>
        </mxCell>
        <mxCell id="HoZvCX80iBz22D77w6RW-12" value="" style="endArrow=none;html=1;rounded=0;" parent="1" edge="1">
          <mxGeometry width="50" height="50" relative="1" as="geometry">
            <mxPoint x="-200" y="400" as="sourcePoint" />
            <mxPoint x="100" y="400" as="targetPoint" />
          </mxGeometry>
        </mxCell>
        <mxCell id="HoZvCX80iBz22D77w6RW-13" value="" style="endArrow=none;html=1;rounded=0;" parent="1" edge="1">
          <mxGeometry width="50" height="50" relative="1" as="geometry">
            <mxPoint x="-200" y="840" as="sourcePoint" />
            <mxPoint x="-200" y="400" as="targetPoint" />
          </mxGeometry>
        </mxCell>
        <mxCell id="HoZvCX80iBz22D77w6RW-14" value="" style="endArrow=none;html=1;rounded=0;" parent="1" edge="1">
          <mxGeometry width="50" height="50" relative="1" as="geometry">
            <mxPoint x="100" y="840" as="sourcePoint" />
            <mxPoint x="-200" y="840" as="targetPoint" />
          </mxGeometry>
        </mxCell>
        <mxCell id="HoZvCX80iBz22D77w6RW-15" value="" style="endArrow=none;html=1;rounded=0;" parent="1" edge="1">
          <mxGeometry width="50" height="50" relative="1" as="geometry">
            <mxPoint x="100" y="840" as="sourcePoint" />
            <mxPoint x="100" y="400" as="targetPoint" />
          </mxGeometry>
        </mxCell>
        <mxCell id="HoZvCX80iBz22D77w6RW-16" value="Showing at" style="rhombus;whiteSpace=wrap;html=1;rounded=0;strokeWidth=3;" parent="1" vertex="1">
          <mxGeometry x="-330" y="670.95" width="80" height="80" as="geometry" />
        </mxCell>
        <mxCell id="HoZvCX80iBz22D77w6RW-17" value="" style="edgeStyle=none;rounded=0;orthogonalLoop=1;jettySize=auto;html=1;strokeWidth=3;fontSize=12;endArrow=none;endFill=0;exitX=1;exitY=0.5;exitDx=0;exitDy=0;entryX=0;entryY=0;entryDx=0;entryDy=0;" parent="1" source="bBOsbKYcq548n3KxFtVK-108" target="HoZvCX80iBz22D77w6RW-16" edge="1">
          <mxGeometry relative="1" as="geometry">
            <mxPoint x="-10" y="600.9499999999998" as="sourcePoint" />
            <mxPoint x="-105.69620253164521" y="662.7537974683542" as="targetPoint" />
          </mxGeometry>
        </mxCell>
        <mxCell id="HoZvCX80iBz22D77w6RW-18" value="" style="endArrow=none;html=1;rounded=0;strokeWidth=1;entryX=1;entryY=1;entryDx=0;entryDy=0;" parent="1" target="HoZvCX80iBz22D77w6RW-16" edge="1">
          <mxGeometry width="50" height="50" relative="1" as="geometry">
            <mxPoint x="-200" y="731" as="sourcePoint" />
            <mxPoint x="-120" y="960" as="targetPoint" />
          </mxGeometry>
        </mxCell>
        <mxCell id="2-yU9KjE0zw5OMVPVS1N-5" value="" style="endArrow=none;html=1;rounded=0;strokeWidth=1;" parent="1" edge="1">
          <mxGeometry width="50" height="50" relative="1" as="geometry">
            <mxPoint x="-880" y="1120" as="sourcePoint" />
            <mxPoint x="-880" y="760" as="targetPoint" />
          </mxGeometry>
        </mxCell>
        <mxCell id="2-yU9KjE0zw5OMVPVS1N-6" value="" style="endArrow=none;html=1;rounded=0;strokeWidth=1;" parent="1" edge="1">
          <mxGeometry width="50" height="50" relative="1" as="geometry">
            <mxPoint x="-1560" y="760" as="sourcePoint" />
            <mxPoint x="-880" y="760" as="targetPoint" />
          </mxGeometry>
        </mxCell>
        <mxCell id="2-yU9KjE0zw5OMVPVS1N-7" value="" style="endArrow=none;html=1;rounded=0;strokeWidth=1;" parent="1" edge="1">
          <mxGeometry width="50" height="50" relative="1" as="geometry">
            <mxPoint x="-1560" y="1120" as="sourcePoint" />
            <mxPoint x="-1560" y="760" as="targetPoint" />
          </mxGeometry>
        </mxCell>
        <mxCell id="2-yU9KjE0zw5OMVPVS1N-8" value="" style="endArrow=none;html=1;rounded=0;strokeWidth=1;" parent="1" edge="1">
          <mxGeometry width="50" height="50" relative="1" as="geometry">
            <mxPoint x="-1560" y="1120" as="sourcePoint" />
            <mxPoint x="-880" y="1120" as="targetPoint" />
          </mxGeometry>
        </mxCell>
        <mxCell id="2-yU9KjE0zw5OMVPVS1N-9" value="" style="endArrow=none;html=1;rounded=0;entryX=1;entryY=0.5;entryDx=0;entryDy=0;strokeWidth=1;exitX=1;exitY=0.5;exitDx=0;exitDy=0;" parent="1" source="bBOsbKYcq548n3KxFtVK-145" target="bBOsbKYcq548n3KxFtVK-27" edge="1">
          <mxGeometry width="50" height="50" relative="1" as="geometry">
            <mxPoint x="-690" y="1085" as="sourcePoint" />
            <mxPoint x="-647.5" y="1020" as="targetPoint" />
            <Array as="points">
              <mxPoint x="-950" y="920" />
            </Array>
          </mxGeometry>
        </mxCell>
        <mxCell id="5cN6lOyvEhk1vvmC0sgw-10" value="" style="shape=image;imageAspect=0;aspect=fixed;verticalLabelPosition=bottom;verticalAlign=top;fontSize=22;image=data:image/png,iVBORw0KGgoAAAANSUhEUgAAA6sAAADpCAYAAADCmqF/AAAAAXNSR0IArs4c6QAAAARnQU1BAACxjwv8YQUAAAAJcEhZcwAAFiUAABYlAUlSJPAAAErVSURBVHhe7Z2LdRRLr0ZJgRhIgRwIgRhIgQzIgAyIgAhIgATIgBy49/Pxx6+jI9WjZ+zpsfdeS2vseqhUqqe6x/DmDwAAAAAAAMDJIFgFAAAAAACA00GwCgAAAAAAAKeDYBUAAAAAAABOB8EqAAAAAAAAnA6CVQAAAAAAADgdBKsAAAAAAABwOghWAQAAAAAA4HQQrAIAAAAAAMDpIFgFAAAAAACA00GwCgAAAAAAAKeDYBUAAAAAAABOB8EqAAAAAAAAnA6CVQAAAAAAADgdBKsAAAAAAABwOghWAQAAAADgEB8+fPjz5s2bh8+XzGvp59kgWAUAAAAAgEMQrMJTQrAKAAAAAPBMOOgZSQ6Ifv/+/eft27dl2Xfv3v359OnTn1+/fj2W/jejukpXW1+/fn0od4TXEsS9ln6eDYJVAAAAAIBnIgaLneSA6MePH2W5LN++fXus8T9W6ypwrerPIFiFp4RgFQAAAADgmXBw+OXLl8eUOTHg1M+R79+//+vNaX7DOqr78+fPBzti/d2AlWAVnhKCVQAAAACAZ8JB4bWCVRHz9ZXeyKyu0FeA379//7dc95XiCgdxKxJR/50e7YrlV8X1Y1+jfxWAO10BulH5jx8//s2TD7pg/Wg/R3z+/PlBb/R9FuXJxtlXtaN9Jvo4inTqq+PdfDC2S181r4j+zrpG/nL7Kw9GCFYBAAAAAJ4JX9ivGayKTu9KXaEA1W9YFUiscg/BqnDfHMzHADaLgsjMUwSrMVBeEfVBb9IrdoLVKKrXBcHRvoro7/gQQGgOOW8kClxz3QjBKgAAAADAM+FL+tmCVREDjKP/4FImBkyRmD6zK+I6CrIysa/ZDwpAXU8BXyynvkpi/3dsEl0/R+gBgdpR2w42c7/yV7X1Wb35dv2V9tVm7KsCxorZGCnwd/4qsl3+j4Gw3tx2841gFQAAAADgmfAFPQdTI2IQVgUNMT+/eZvVjeyUXaUL4maBUIfr7AarCpKcp+BIn9UbVH/1deftsuj6uUoXrBoFrdZf2bYTrJr4drn6Sm70Z/56ubi0zzHY7b4STLAKAAAAAPBM+HKeg6kRXRCpt1G65Put2yyAi3UrpM9lq+DkCF1AE9NndkVcZzdYFTGgk8+qt3m2S/k7dP1cxbZV/TJ+G1rZFvu2g4Pz6u1qDPCrwP7SPgs/OOj6TbAKAAAAAPBM+HLfSXVpj0FYJwpkquBrJ1gVLlsFe0dwgJX/kZ4Y6DxXsBrfJFbBlzjy1VbR9XMVB5td0CZGwaHrV3kjZgHn6EHIrO4KowBcHNcMAAAAAABb+HLfySwIq0R//9dxy2BVwbODHQUlkRjoPFewGt8Udm1GHdXfhlaM+rmKg82qX2YUHLp+lTdiFnBabxVMzuquMNNxXDMAAAAAAGzhi3kVTHXEAMpBlgKk+BawC5Kquh3S6bLdvzq7Qwyg8r/4GoOUmV0R1xkFdR3xzWrHjr/MqJ+rWMeoXyOfRRt2mI1DzM9v7v2PVlVfIV61J+qvIFgFAAAAAHgmfDHXJX2VUQAVA9Yq2BjVzeyUnRGDkKqvMX+nLdcZBXUd/srpqO6uD2b9XMXB3ci2kc9Wg8PMbBxigN+1Wb3ZX7Untl9BsAoAAAAA8Ez4Yr4T2MwCKP8jNVXQMKsb8Zuy7u8HV4lft+2Cr1mQ1DHTO2L0rwCbHX+t9HMVB3cjPbcIVuO/Qhz/0a34Fr76l3xX7SFYBQAAAAA4Cb6YXzNYjW+/8t9Zzuqaa/zdpVkJRFfKVLjObnAYA8squDKr/hJH+1Bx1mBVOD8G+a6nOZO/HiwIVgEAAAAA7gxfzHVJX2UWQMW3XFnvrK5Qff8XJgo+Vv9hoQ4HKqN/GXclSKpwnVFQV6G/wXXd0d+VrvjLrPRzFesa9WvkM9eX7LAyDp4bakNzxW/gJd1/cbRqT2y/gmAVAAAAAOCZ8MU8B5UjVgIo/z1mDpxGdRW0Kdjw12Mlo7eOq1waeI1wnZHuihhgjVjxtVnp5wjr18MBv9U+6jPbItlhZRw8t2Sj7ZSM3sCv2kOwCgAAAABwEnwxH4kCgshKABXLxIAzpo9EbV7jXwAWK0HccwerlU0z38zsWulnR3wbHqV7UymeM1jVgwzNBwX58WGGRL/P5sqqPQSrAAAAAAAnIV7iO8nBavxHbkZfYfXXNeMbLwVF8W1YFAUd+keZFNyq3LVYCeKeO1h1veibWwarepvq+hKNhXwy4rmC1fiV6SieKyus2kOwCgAAAAAAAEvogYgecCjgVDCp4PWaDzN2IFgFAAAAAACA00GwCgAAAAAAAKeDYBUAAAAAAABOB8EqAAAAAAAAnA6CVQAAAAAAADgdBKsAAAAAAABwOghWAQAAAAAA4HQQrAIAAAAAAMDpIFgFAAAAAACA00GwCgAAAAAAAKeDYBUAAAAAAABOB8EqAAAAAAAAnA6CVQAAAAAAADgdBKsAAAAAAABwOghWAQAAAAAA4HQQrAIAAAAAAMDpIFgFAAAAAACA00GwCgAAAAAAAKeDYBUAAAAAAABOB8EqAAAAAAAAnA6CVQAAAAAAADgdBKsAAAAAAABwOghWAQAAAAAA4HQQrAIAAAAAAMDpIFgFAAAAAACA00GwCgAAAAAAAKeDYBUAAAAAAABOB8EqAAAAAAAAnA6CVQAAAAAAADgdBKsAAAAAAABwOghWAQAAAAAA4HQQrAIAAAAAAMDpIFgFALgBb968eRCAl8aHDx8e5vaPHz8eUwDgElhT98nv37//vH379mH84DjclOAvX79+fdgM9Qn3gzZDHWD6hPuBYBVeKlysAa4La+r+0J3s/fv3D+NGsHoZ3JSuxM+fP/9ePqO8e/fuz6dPn/78+vXrseR5+fLly4PN+nzJvISxinz8+PHBfn3C/eB5B/DS4GINcF1YU/eF7pkOVCUEq5fBTelKaAPRhPTrfosnqtLPHgS9lmB1Zay00dwLnz9/frBbn3A/eL4BvDS8n3KxBrgOrKn7QG9TfZeOovGD43BTuhIOgPKEjF8DOPubr1sHq24/+9CbtN58Vl91/fbtW1mvY2WsVnVBjXwYRf7UOO1SbfoSzQWtp5HOWF7jWn29vZtzs7nYrRHNLb/plujBh97WVw8/XGYks4uJ9Mom25XFD2T0IKN6WOav/stG8/3797/rwPZX6y6OTdU/tef8SOVD90HtuU4U5cmOIxc1t5dFfRzplB9U176IovTRn0toXmoeaJ66jvR042Ab87yyj3N6tYfZd9avMVP/nK721aeKoz7q6PRFcZ/cF0mmS7f+mV32XxTvHV3da4xF1yc/WIxlTaVH2J4sR8dGNkhnnJtZ72hvPTrPYhsW2SF/VvvLDOuI/c++ki1H9HusJat7m39fEdvsdvKYV+m5b5Wo3og4Ly0at9lZ6rajfvnUY676FZoXud6Izh/P1f41iOOkdrs+wR7/PQXgEN1BI7Rxe/KeGS+q51zYkW5R62AYbUqu121YmdFYVYcQ7KNLgv0YRek7FweP7Ug6nfHQsOS53c25Lt06sx7hi2gn+TJQlckSL2IdVb1KtIbyxUt+U54urqLrQ+djj7Pq53yvM7UbqXxYjVUno0tVxYpuXWoyngMjqfxSXQijyB+5D/Z7nlfdZcsPGeL8tA7pjntmlsp/R33UsaLPffIclERGe7H7NlsfszGs+nSNsYhzICLfKy2vCeE6UY+49tjMfBJl5J/deVaVsUhHFRSOcN04B7r964j+3b0ttjcT2+yxyGNepa/Mgzw3M3GtVTI7S7P+eLetHt653ujBXqTzx3O1fw10D9U81NoQXZ9gD27kV6I7aITzJBWazN4YJfq5ewKuDVeLwWWzeBN0m10Ap7xsqxdV3hC0eVU2VpceH9xqX/k+yLLOCrdf+dB6Jdk33eWiYzRWwu1E1A+Vly/0qXwdYt6QhPJ0uMcn1vJ/dUh6DIX65jr6jP3QzzGvmhf2Td6QlRYP04j7EIljJ/F4S4f65UNMNsS8md89fzwXVPdSZJ8vj5LRZc3jUrUtu5Se50KXbr/lPsdDU215XmjsXUeyemFyHfVzhsqovcpm9T2Pl8fR2Dcef5Vxu7LX8y/3WShfeRKtw4h9suJD6ZGoXeuLKD3ueyt+GWG/xLHJ+5n9meeMfC1feT7n/rkPqhd9HcdBEvvgtrKPK18Jl4/7u+xymutpbG2D98lqDlSs+OgIVV+tP9LNBeH01fUUUR3bIOl8m9N3xqKzPabHs0M4L8+nikvGRu167rmufxcz/1xrnrkPo71phOpIou0Z+cT7l/Rnn4+QH9zG6t7WYT0Z+znr6dI7XD6P1QrySdzP8n4nPM6Vfu/LlX89tqMxinT9fq72n4KuT7DHf1cPHEKLoZuQ2jCVV20CXkz61KTWpthdDt2GFqXKKd9lXd+LdWSPqPK8qGK7OjzchjYF5altb2yxrLAOX4BVV7atLFTX7cp2m5LKKz0Hax0j30QfR5Smfni8VFdlVF7IHvvEfpIPnOZyxjZnP+lniXzs32O7Eh2UEfstj4XLV7j9SB472e5yEv0c7Y15+TCv8AEvucalVzjAkowuOh5XSaSbc126+5x97TWSy4u8hlZwO3nejOhsFrLBczH7PvpGkgMAj5vmYEUcgzg3bU/uc+dD0Y2TcV3Nw2vhfSX3b+RPEW2Nc8/pXT33IbbntrJPXDavea23UXlJNde8j2R9MzofHaHqq22O2I+5Tfm6Kr+Lz2Wtizh+1xiL0Tx2uspEZvOm45Kx6WwR9oP2rsw155l87/LZ5yPcfmV7JJ7Nu/vG7t7WYR0Z68lj3qV3uPyO/zLa9+2nPG4e70q/xs/nW56DSpPkM6Wj6/dztf8UdH2CPS7b7eEv3UGjA7HbADyJ8wYaF18Mynwoxc1ZZaVfEpkdfFWe7YkbgtrXBpAXu35X2XyQWYdk92CYLWoHSrGM+u+01Q2p8437qrwcfLkN+blqR7qUnwOBzk8uL4lBdjwc1VacM74U5QOyGjdhPRVuP5LHTr4V7oMltiP7lJbnX4f9m31/CbZrdGnxmEsi3Zzr0u236IPon7zGTRzXFeynUZ8ync3G+0e03Xi/qdZsXGMVvvRLNA88b9yHOL9F5UPTjZOxH7s+HmF3bkRcL46T9XX1tM+4nvd3txV9Ev2e50HnwzgW8ewwXZA7YzYuO1Q2VLpdLvvxmrZ43kf/XmMsRjZ6XeQx8NiN5lvFJf5wvdwnEfe1zLXn2ZG+u/3K9oztkeywu7d1dG17ruV+d+kdR9d1xnesrKea40Y+sT9imd27gej6/VztPwVdn2CP/d0NSuKBkUUHYnWJ9UHpDTDiCR43Q+vKeCHHIMr2dAukynOb1YZQobKSyCULc1Q3BqoWlfcmtdOefaNNTPUkcbPTz3lMnFcdjL58ql6F9Cs/jo/TqsPObcXywu3kzbcbN+upcPsR66meFo/s9TzO9la4jdz2Jdi20aUlrs+I7ZGOSJfutqKv44WmWssitj+yU3icR/oqOpuN86PtxnmdbbYnE/tu0fzxeo0XPFP50HTjZJzf9fEoVZszfwr3Jfot9qFbEzlIym3pvPCeNPKh/J+JejJup/L9DNWTXIr7Hs9E65Y/NP9tpyTbav9WZ+Eu9mNsw21fMhZxDmS8NvKDodzuDl1bM1zP8zAz0qv0a82zkb86XL6zPRL1r5QXR/a2DtfPdGO+OxeqNXWErl39rvQ8nup/vDtZ5Dv5p6oz4tbtPwVdn2CP/d0NSrwZaoFoUkq8WLS55U1NvyvPiylLtTj1e3VAu+xTBquyVxuh7XNZSWSkY4brZrvUL7clX/qwsMjPK4GSiQdXFLXbPSl1mQr5RXkaG/smig+SeEh6zKqD03kVSs95akNp+oxUZU3VRqdHOG9kb5WXsZ7cdofLq40Ot1/ZbeKYRzr9K+2alT7F9md+8uGrp+U7zGwe5bvNDuVV+d7jVF9rx+UsVTA1Gq9unMwsv2LUnrHOODYzfwrrzmPqNW/J+0qu5z0kS7e32e+5Xevp+uo+5fyjPtrFb4A0XyLVhVOSAzrheTYal1Wqfl9jLPSz62Vsf/bBLcZmVq/LPzrPOkb+ugZR/6qPjuxtHa6TsZ/yXO7SK7o1dYSddkX0i37O61i/57vviFu3/xTs9glqnmZneIV4M4wTUovEiydfPOPmORItQCPdSosHptrQpiqJVPZEqjwvKn1G9Ls37koinY4VXLezS74U6nO8DO5uRjPfVLitCts3kzhuHsvq4HRehXVFOp9XZU3VRqdHOG9kb5WXsZ7cdofLj8bK7Vd2y+f++mvVbqd/pV0TD8wOzznJyE9+EHPkkJ3Z3OWrnVE9oXxJnMOxT7Y1+loX2gq1o/xqvKLOill+xag9Y51xbFbmgHXnMZWfnCfJF9sc4Ki8y6qe5oHqVHMgvnnP+OKa7THuU/72xFEf7aD+qL76HueR8LzRvi5bZEcuY7xGRrauUvX7GmMhH1XposuzD+KZL55ybGb1uvyj86yj88m1iPo7myOx/M7e1uF6GftJYxzp0jOjNXWE1XaN56bvt3Ht+L62w63bfwp2+wQ1T7MzvEK8ueUJGQ8z/Wx8QZSsEjcmLU4tAgdtyot09pgqz4tKn8ZPULXw8watdEmk0rGK62a79HvWGQ+T3bZmvqlwWxX20Y4+90m2ZJxXUdnR+bwqa6o2Oj3CeSN7q7yM5pHKrvrK7Y7Ku/1sd5wjUeI67PSvtGtiO50PdgPaaOMqM5u7fLfrA7/CdsX+Vfq0rzkQ6+xQuvJVPxN9UDHLrxi1Z6xz1r+Mdcd6M2IfYgDkvXx2ER7ZZXuqwEp0dV1v10erxHmRzyrhs212wYx6jtiR6fp96VjEMa5wngOM2K+89p9ybGb1unzbtDvPOmb+uhQH16v6K/vjGK32y3Rtd35a8d9sTR1hd9xUVhLnh3Xk9BVu3f5TsNsnqHmaneEV4s22mpB+EqzPiDeabsOPeGPSYR6f8FVBpLA91eHvp0/ZVi8qfRq3VbWhdEmk0rFKt6j1e2WDy0t2niqOxqrD7VTYn7OLVsR9qjZT51VUdnQ+d9k8v/S7L2ORTo9w3sjeKi+i8VM5yerh6nZHY+X2o92xj1p3+t1zObbd6V9pN+K2ujcJs3zR7ROr2OaujVlfR2OifEkcY9fLQa7XlyS/JRLVeBnX1V5XEXWvMmrPWGfVv9EcsO5Yb4TmofYJ1cnj7PY0V/KaNdprRhdU1+/o+nTUR6vI1pFt6q/7Vc0Z4zUy6uMOXb8vHYvZPJVe5WlPjHtTNdeecmxcrzs/O71KOzLPOmb+ugQF/x6n1b3V9u/ubR2uk+n8tOK/2Zo6wu64qawkrxHP2dH6qbh1+0/Bbp+g5vo7wyvFm1g1IbVZKk8bZlw4s8tpPAAdEI0uuxG1o/KSGOTJTm/c2VYvKn0a2xjThDdKSaTSsYrrZrtsbz4whS9+O5vSaKw6VF7SofaVny8tQnblQFttq3zVJ+dVVHZ0Prdv4oGruej0VT3CeSN7qzyh/qu+x3EnqHe7o7Fy+9Fuv8mM9awr+qPTv9JuJK4HrRm/HdGnL6KSzkei6scM6ZfIx7P6XZ9cb2Sb8nMZ96tqL77JyBfhyk7rdb1so1E5611l5hdhnbF/nb8ine/km7jmNUaak14D+vQcMRpD7yP61Jzynqaysme0huybkb1dn476aJUVX3rNSrSG4ryRL22jJO+nR+n6fa2xkFTE4NTtVHNCXHtsXEY+dL2OSq/7NhrLlfGOzPx1FI3bzL8VR/e2DpfPdH5a8d+uj1fY0ek7qSQjP3t9yJer3Lr9p+Apxuk1ct2d4RUz28CVrnxNXKPDz4GDNlTlSXRQe6FF4iYZRbqV58PUxPIq47b8mW31ooo2xkNEdinPfalsrHSs4rrZLqVJqoMmbljq7worh23GbXTIDvtDetUXSbyUROxD2ZJxXoXSc17n83gZ0Zhbr+z0AR7p9AjnjeyNeZ5jWZSe5+kIt5v9F3H70W73L9rkcZcNptO/0m7GD3Y6qR5kRKp+zIgXfEv3xL/rk+sZl6sk+tP2Vv2Kl/3ob5H7GdewpbtgeAwlq6z41Tpj/zp/Ray7mmedyC/qc4XS7bdOujVke2M/c11L7tNRH62y4kvRnXFRZutoh1G/LxmLap6qnNK1PrNe6enmxLXHxueURb93VHo9ltEel8syG29T+esI3fxRHzv/Vtjnu3tbh+3IdOuiS4+slNllR6fHTL6oiGfT6sOlW7e/iuyTXtk74ynG6TVy2c4Af9FGOJqQDhxyvjY+TWZtesqXaPHlJ8sq5zLakFVHop+dXm2cKuPDSXr1u1BatsWLO192ZXu0T/WU5kAs0ulYQbZZv1GA6nY74qa0clh7rHaeuMlfo0NdyFaNmw8yifymMcoXGvuuOkDVf+VVVHaMfK5xsj2qJ/tky+7YeWwq/1Z90e9R1Kcjl8xqTmTsL89tr7V8iKnftsd0+lfarZB/7A+JfV6Ncyb3Y4U8vpprHVWfvBbi3uFylcTxd7vdmrNuSexT7qfWTdxf5L+8XozacrlVVvxqnbEvlb8y1h3ryXbVjX2yHq2trm+mqq+xlV9Ga8jzTnPCuH6W3KejPlplxZdG+tUX9dlteh+tHlhewqzfR8eimqfxXLCo/dm+eO2x8TyRqF+jvanSe8k866j8dQT7yqL+yW+zNZc5urd1uGxGdZWe/dSlR1bK7LKjU/N2VtZzRWtmZQxu3f4qalN6Ze+Mpxin18hlOwM8Gw4kusXhw3TlsAIAAIDnQ5dViYJuXbSveXkGuAa3DqwI7KCDYPVO8CKOTzONDj0/Cbz2k2cAAAAAeNkQrMJZIVi9E+LXZPTVBi1qib5i6K9Ljb4CCAAAAABQQbAKZ4Vg9Y5QwKpANf4tj/9+pnrjCgAAAAAwg2AVzgrBKgAAAADAK4ZgFc4KwSoAAAAAAACcDoJVAAAAAAAAOB0EqwAAAAAAAHA6CFYBAAAAAADgdBCsAgAAAAAAwOkgWAUAAAAAAIDTQbAKAAAAAAAAp4NgFQAAAAAAAE4HwSoAAAAAAACcDoJVgA0+fPjw582bN39+/PjxmALw+mAdAAC8XNjj4UwQrMIS2rB+/fr1+Ns/fPz48WEz+/nz52PKy4cNHIB1AADwkmGPhzNBsHpjvn79+rAhdKL8W2Mb3759+5jyD69xM2MDB2AdwOvl+/fvf+e/5N27d3++fPny5/fv348l/o3SdYbGOpL3798P6+khsMqpHsBzwx4PZ4Jg9cbosNKGoANPm0MWHYy3Rjb4cI3Ivte2mb3GPgNkWAfwGvF57fNQ60APcfW7vmmUUcCpsz3X0afTVL/6dpLWlvJVHuC5YY+HM0GwOsGHUzwwfIhYdNjooDqyqK1fn/fGU21m3759+8+BHsWBvZ5WV0+l4/hEqvTPnz//TasuDO6jx8e/j8RlqzzVV35lt+dCFM8t+eQInb3y7adPn9qx89uDagyUPnrjL1tlc76kydf5q+TCNuY1YH/kdI+j6hlfGK1f/lX/nK72uwc/R33UoX5KZ+x/1tuNaTUHpGe2v7hsLFOlCfc3p3f+ruh8FiXq8TyqdO+0K2R3bMeisZZd3b4gqnqVRN+4r9G+XH4k0uU+Rrlkbcsmied3FuWN5q7tUbmI98OcLux352mtuX31IxPHybj87jqNurq9x+vNfb62z2Wr9eSzQjZlH6i8bZLP8t6n31XHduU5m/29yyX7kN/qqq5Rmu2V6OfshzhOFvVNdnQ+V16uo3aP7L1C+iSeU1mU1+nWGLheHk+juspf3Q/U3ow4V6t7iOaK841/X5G8JrJN+l3psU9OG0ksP8Llo8+lX3JknERlc/Sj5tCqfXB+CFYnePJrYZh4aGXR4trB+u9xUXmzOHKgjJC+6NOR6MDtDnlJpErPF4qM++gLlH8ficeyyrNog1456KPszi2xYm+l1/NyJDPfV6J+50uLL8h5DVSXAqGLodLjeFmHdMdLdJbqwnTURx0rvrNkvbO6nR3Ol/+NA8SYJjzfc7ovotnfFTvrQHgsqwug+7zSrpjNMUm1vkRVtpLoG/c12pfLj0S6ZjbvzC+x4n9LNeft87iGhMoqXf7LuA+xjteiJPpMuLzmoblknbquZDS2zru2z6v+j7CPY/8rvE7z/N9tL+P2V6Tyhe3SOPnbVVnyOpv5XDrzmTGzs5oLIy5dG7Gv1YMR6495Ll/J6vjZ39qfu3M1rsvYxkxUX3Tr3n2Kc3DFj3nOdri87RAr+i3VOFU2V3NJ+wbcPwSrE7rFHdFm7svY7uKw/tVFr0UbF7mfHuXNTQeI9cq+7omoPmOe+tHpyhdN2+ENyBtq5yvnzy4Jal9l9VltSOqP/OCLTm7P7UgiK+n6OZL7OGI2luqPDkIfSrI/+zqjduP4dLp3sB3umyQfBu6LbI3I9zqkZ77Pl5LYb0n0Z+e3auyFy8f5KLuc5npxLvuiu+JzseKjDtni/rlu7K/Wk/sgyf3LrJR3XmzHtsc0UZUVLl9d0HawrdFOp2m/ylTlj2A/eW5Wbc1QPUnlx1X7rGOG2ji6ttVXiXRU7WXdeaztc/UtEvVpHkecl+vYP52umH7JOtXvftCS9yXlKV0yIvtlx+fuz+oe4nmofWSE9hWVy/O18/cql+5Dtkvp7ov3BvW/G/eM7Bid1xnpHp0XMy5dG8L5sjmvA9tV1ZPd1iu/5bojZLPr5juk9a7OBevJeLyzHo9lngMd1rNa3vZEn106TiObNYfinRzuH0ZxQre4K3zQSlY3qZ1F74WrzVLlJT68s33eAFQnHhL+WZ86ePxzzMsXAevKbeh3pcdNxDqq/nvzWL30C7dR+cd25fZieqRLF7YtXxjcH22qM1bHUhupD7xZWWPdRy7gI+Kciri9POYm+jJe3Jze1fN4xvY6v7lsvux5nXXlJepXxj6fXR4znY9WsD3yS2Z3TH151JyMPhdVO/ZHbttlsw77p7J1h2o8PS8kmar8JcRL3+5Yu170jf24ap91rOL+H1nbI78K2679LeI2lZ+xvjwP3Fauo73XdeLe7vMlr0XbVOWJ0TrtLvS2TWtjhaM+V3nVk42jMz7aOUNzzWV39tIdrD+Pqeh8IVt8/knyQ6zO7g75xPoqOyq6+buC/SepGOlWf+JYR6yzuhO4f0cf+HnNSOL89xhV66XCOjLdurcvlL+C9ayWtz3VuB8dpxWbrbcaK7gv5jvpK6db3BVx895d9NoY1UaWeCBq08wHeNxUu4AtHqyxvESbnw8alfFmGxe3dcmeiH5XetyAHPTl/ts3q5cJ4zY6f1aHX7f5delC9lmXL1wunw/xji6IqnDgkX3aYf9JRpekXTqfeF6O7HO9yvddPdnueu6H24p+i/2N+kU3J+xTSeWjnfGJdD5awfVyH8TOhdZ47WZ9VTv2U0zT/uGymUrHESo/j8az2zMuoZsjM2xjZFdXpWPEJWtbvhy158tvXo/qS5UuHCzm/o72LOuLe6X9FgNYcck6jQGPxHPJdVYv80d9ntvX3K3Wi8clBzod1hd1WUfl710q/Wa0D3ltdmeg50qlt2J3rXu/Wj2DI/afpKJbG0Lzw32T2F7bU91j3F6Vt0pcG9IjO4RtWQ2CrSPjdZr77LW6Oi67Z6ntqebJ0XFasdl6V+cnnJd6dsBfusXd4QW0Wt76O4lBY4fbjAvSG4A2eW94xm1WB7sPk7gpWlfuU9WuD758uHgTlv4d3Ea3IY36Lol06SYeRCrrS0l+QNChPq+Wn9lS4fKxr9egsmNl3s98381d+8n1clvynw/neGAbt5svwSLqybidbi6NUD3JLq7XjdmuXvc996FqJ5aVD+Uvz+nKR9axGzBlunXg9DxuXZ8u4chYe/3nvWvXPpWV7OA63TzpiOutwvl5vO2fah74DMh79aiO8JpVOetQWsVIj9vJ/s6BokRj5cusZMd/R+oIrSX3z6K+xH2q83uH9URbdnWMqPRHnJ+xDXksjGwb6c3M5lDG7Ve2zZjVdX62ReMYA1VL3D8rf3T6VvEdKYruaJ5r1VnY4fqZzv8ex26cM90e32F7qnlydJxWbLbeql24L/Z3ABjiBZQXVoc3j9VNQmjhqbzFG0dckN0CF86r2lRazut0ua+xXeGNPgYr2nSrsjPcRmWrmOXvYn0S+XXVXj9p7C5nGftUsorL7/hwxT+VXs8D1e+w7myP56MlPw3O9RwkZNHhXAW8vjDkdq2n66v7lPOP+miFWb1dvZ2tlR7PySyao/nS44dMkksYrQPvASoT6eZRh8rNbPVYS3ek85/84XlbPQTZYWZbheus+sDMfNHld/4RDv7yGLpO9p2JbUk0ztXl+ug69fzR+o+BgyUH1zNcb9fnRn2TjbYjriv7ovJvRWXLro4Rlf5Il+/13NXzeuryMx7b1T7ZB5JdZnW7/PjwQz9rXP27pNo/hfUdHa84j6INlp19yXUynf89jnnNVYz2+A7bU82To+O0gutV7cJ9sT/6MMSLfnXD8uaxsknokM+BQJS4IL3AKzucV7VZ2dPpcl/zRuCN1pcHbez6Xbbv4jY6/8zyd9FbJR8a3ZvBjJ+Iqt5qHftUsorLZ3+PWPFPpdfzII95pBt/+cB5knzI2r+uFwMl1dO8UZ3qQqDxcdnM7GLlPuVvFBz10Qqzert6O1srPV6H8rfqyT/dk3DPYZU7ymwddHNqd72pjyov6eja6vznQOiS/puZbRWuszu/Zr7o8jv/iK6OfaR51eE1mNdY5Og6VZrEczhe6KVzF9fd9XlG89Zz2L6ZjUuk29Os45pzsutrl+9ArcPraTQnIqN5V7Hjx8ysbpfvPnlOxfNpFKBZ304QZ6ItPve83iTdvt3hepndfTFz5K4jbI/6mTk6Tiu4XtUu3Bf7ow8tDsoks0VvvHnMyjuIkuSLvDeauCC9wKtDwXlVm5U9na6qXWE/yFbhDW7Wx4rZJjrLP4IvQSuHjvrqi4r6uYp9KlnF5bO/R6z4p9Kr8krLYx7pxn9E7Hecw34IMzuUR3bZnqg30tV1vV0frTCrt6u3s7XSEy/BnU/Mig9GrKwDj733BeG0nQdZriPp2BnraJd8dikz2ypcJ47fCjNfdPmdf4zr+EIax3fkI5WbrWWPwc467fphXbJtNscz1rfr8wrbHANs659d6n0+5vPGfe7GaAfb0vW1y1fa6By0/+N6GjGbd5lu3FeY1e3ynRZ9YbtzeuQSWyu/xDW3Owc6Ozr/r4xjtGfnriNsT+W7md8u8avrdWMG98P+6EOLnxhLVi893jxGm4RwAFU9QfZGExekF3i1yTmvarOyp9NVtWv8VFAXFpc7chF03e7JrfNn/ttlVa8vGrtvje1TySouX/m7Y6UflV7PA9XvsO5Ve3TY6eKjOvkre25PfuwunfENRnVYun5H16ejPlrB9boL667eztZOj8uP3nR5DkuOBmsr60C63Y7GWL87sBn5PqM+Wk/Hzlj7b8J2v0baMbOtwnV255d9oXVR0fmq84/xuGj/1lh5P+/KR6JN1VpW3u46tc4cOEm/94TRHK9QHcmuzyt89sfz2T4b2SX77eu8p7nPKz6fIT2SnX3I7Y/WRbWeRszmXcY2SHZx3d214bQ8d91XjVc1r5VW6VvBfsn3u2jj6ttr0dnR+X9lHI/edYTtUX8yR8dphVG7cF/sjz78B126fOGRVAFlhzeP0SYhvFHkTSZe4OOC9AKvDgXnVW1W9nS6vMFVG4EuOcpzcDJ6OptRn7Txy69V3yIrm+wRZIP0SroDXthflZ9H2KeSVVy+80XFin8qvSv96sZfl7P4VkXjqIPWY6lPpUXipU2fmu++EKis7HH9ai7ZnyN7uz4d9VGHy3gNSDp29IrO1k5PnMeqG8dFeUf3rczKfBEeQ82R0XiO8FhLOnbGuvPpUWa2VbjO6jxwOQdJnd87X83Gy4GW8r0uq3Xb0QVqtqdrV1S2+WFtVS+usyMX+lWfqy9aL9kHqu+5HHXFtad6OcCRntH5uOKrEbbl6D7kcRitC9k2KxOZzbuMfSBZxX04sjbimGU0XnH/qujqzvB6qfzofkhGd5FIZ0fn/5Vx3B27iO2J8+uScVqlahfuk/3Rh389QcsyegpZ4Q1gtEkItemNUota5X3RrA5KL/BqA3Be1WZlT6dLv+d2I7ZLkp8aj/DGHaXbpG3DzH8d7ttIRpdp+6vy84jYrnFfVqXze2TFP5W+lX5Zd6w386cuvt1YKt0X4040FvnSJ2xv7Geua8l9OuqjjjjvJfq9Y0ev6Gwd6dHayzZl2d23MqP5okue7NKlJNuhtV6N54g4xzo6eyr/rYz/DpVtbmNVRvMhXqgt3eW581XlH42Dyivgy+tQ665atyv9ig9I3G70dS5viba5XjdPfWZofjmYvKbPhc9bifwh/fp0WmVbXnuqk+tJqnXgsVN914syO1PzWtPvHS4TfaA2YprtqWR17VTzLuuayYhL14bTNP8r/NBEEue1yfpWsa+rMdW88HrUvFmhs6Pyv3D7o3Hs6q5gezyXrrGHVbgfWdwu3C/7qwr+tXgkOgS00I4sCG9+K5u9FrgPZYk2LtWzjti+N4NqA7D9VZvWpU/T6bItyq/w5ibZuZCqng9abdKjQ3llkx2Rx7KTDvdxdwOP7Zpuo+1kZb6t+KfSt9Iv6471NM6qmy9jKqs5NZsHVX2vr9E88FyMFwjXz5L7dNRHHbZFon5060Ps6BWdrTM9usDrMh2DEP2stNW2R3TzRe26vSiXtKt61tPR2VP5b2X8d6hscxurMvKNfBrXh+Zbt646X1X+iXPDovyV/Xck0a9H16kDxW6M1H/b73ortkVZmY/yRdarPlWBi9F46UFNt6c5XWnqn4Ntn7udSOeIS/chn8GeW3EuZVldO9W8y7pmMuLStaHx0O/Rvoz9Kv9k3VnfKp673RyMc2HF150dlf+F5/RId1d3Bdvj/l1jD6twP7J0foX7YX9VASzijb964gwArwNd6nSJ0GVndKl/DlYuZa8V+UaiIEh7d3d5hOvjQECi9QLwkvDcJmiEoxCswpPhJ2dsUABwBghW4azobZMe7BKswkuDYBUuhWAVngR/dUNfbwEAOAMEqwAAzwvBKlwKwSo8Cf4X3rgUAsBZIFgFAHheCFbhUghWAQDgVUCwCgDwvBCswqUQrAIAAAAAAMDpIFgFAAAAAACA00GwCgAAAAAAAKeDYBUAAAAAAABOB8EqAAAAAAAAnA6CVQAAAAAAADgdBKsAAAAAAABwOghWAQAAAAAA4HQQrAIAAAAAAMDpIFgFAAAAgNPy5cuXP2/evHn4BIDXBcEqAAAAAJwWglWA1wvBKgAAAACcFoJVgNcLwSoAAAAAnBaCVYDXC8EqAAAA3B0/f/788+HDhwdRIJPl7du3D3mfP3/+8+vXr8da/+Pjx48P5b59+/aY8k9Q9O7du4d0fXbBkdtUmd+/fz+m/g/pVL7KRZQm+fHjx2PKP7okstf5UZT36dOnf9VZxTpye1H/+/fvH/pZ9UP1XO7r16+Pqf/G/lq1L7dvkR1dPx2sjkR6jdOyLred062/G28T/WHxPIvzKGLd0T5hXTldWHfEadH279+/l2VNldf5UuOoNdH1o+NW67Bqz3OoagfuF4JVAAAAuEvyZbUTXZh1qY74oq/LrdBFN9eL+RFdhh1c6rKdcUCQ86wzBhzdJb+S3UDC9WJ7ChqiTkvlIxHLV/mjvIqV/mafdwFWFOk1HsvYb9EF1g6YqqAoonpurxK1m4N+z7Non+geaMiP1hdxWrRd89Dpo7GJrPiy6seISkcl11yHs3m0u1bgvBCsAgAAwF2ii7su7L6Ax4u/Ltu6CPvyq4tyvoAreFG666us38rEt1Y5uBF60+h8lY04wMvBT6VPl3dJDIQiSncwlevOWKmjS72DOPkiv5WSz5wv/0SU5zYuwWMVA5DVYMN+i2NvPbnf1p3TXb57ezxC/pKt8l22Q1T2iWrOCpeXvojSJF2fKn85bwXpVUDoOtVDmg7VvdU6jCj/6FqB80KwCgAAAHdNd/EXuhg7kMgXeteT6MKcL9EOOvVZ4Yux9McgT3YoPQc/bqu6RCvN+RXWuRNEjNqLyHb7qNIf3/ZFX9hm1b0W9mkOjDtsQxx7+yr3W2mSPM4OpGZ+GiEf2YdRT2Wf8NzLc8vBWS6vtKxbuK/Sl3GdHeJDmOynGbdahxkH3ZUdcH8QrAIAAMBdM7oki+5rngrSlC6p3kx1gYOJb6JcRhdtp+WvPDq9Cooc1EgqHETsXMBH7WUcEFTtx0As6nMd+fdazPyQqcZIP0c7RXxDl3H6ip9GeD7Eeeb+5HFzgJznZDeXlSbJNnoMcvk4t3fp2ppxq3WYuaTvcD4YRQAAALhrZpdk5+dLslCd7lLbBRoiBqoW6XcQUtVxuSoIcFuSipEtHaP2MrH9WD4HqhK9/Ypv4Fb072C9K3gc4ls3j6nGQw8PFAC5D6NxUZBzCdU8jH4V8qeDNkn2nXWoX5GuvPqmdI1JJLe7g/23O65V/yPO12fGbVa4L53eCpWX7PYBzsf+DAYAAAA4EauX5Jzvt6Bdve6SrIBD6RIFFTlwVWCU36oK51cXaLclqZjlV7j8yoU96o/lHVipTzHos+SgaoZ8qXpVwGKse2a337jJphhoxrfEUfQgIX/FNI7lpVTzLL5pz1K9RezePrpO9km0P/bN45nn7mytiJUxqpjp7vKPrsMRKi+ZzSE4PwSrAAAAcNccvSQ72Oku5b4kKxiKWJ//rlKXbb3ZUpokB0TG+dUF2m1JKmb5FS6/cmGP+mN5p8lXIr5RjW8zV9EYqG7nc2H9I7sVpDlwzkGfbVS+2pOdtj/jN5M7gVBHN89sp+aLglHZ173F9TzKfVdalS6qPPtA7UU6GyMrY1Qx093lH12HI1ReMppDcB8QrAIAAMBdc/SS7PQukPElWRKpLvOxbHfpdn51ge7aMrP8Cpev2svEt5Gma9P9V/DQBeYdle8ybnNkt/VUb3bj3yzO7FuxZxXPJ+mM+M37LLgfjbHTK5+4DwpQjdNyIN/ZGDnqk5nuLt/pu+twhMuP5hDcB+ujDgAAAHBCfNnNb5FMd0n2pbx7y9Vdkl0vX67djuTo14C7t0dPeWFX//32LwZ/btNvkI0CQJfvfN5h38lXHcqXdHbHYLQbO7czss9vVUd6dujmWRy7al4I+dR/71wF4K5f+SQHw7ajepjQ2RhZGaMK636udTjC5bs5BPcDwSoAAADcHbrYSnQZn12uu0uyL7Qd3SXZgVp1EXbAUf0XHNYV6/lnv9nMNprOlhFVexkFbP7qqfoVAwZ/lbSyyV/dlMQ3ejNmYyWst7N7xRfxbznVZnywoDwHeJLZG89VunkmFMApTz5WOftZc2Q0Bsa2Vj7xOEmH/Sup3lSObDQrY2RuuQ5HuPxo7sN9sD7qAAAAADeguuT6gh6lC5qq+r4AxzRftiuJOK0KKmKQlIMgp/sCHctaurdS17qwOyjOoiApv/Wz36o3fSIGYJUvKuzjLqARtqkLNFZ9oSBQtrlsJV3fjtAFYyIGc51UY2BcJvpEP6uPWa/0dF+pHdloVsbI3HIdjnD5bg7B/UCwCgAAAKemuuTqMh7fRo3ejlX1fcmO9VYuyQrKclomXuDjZTmnSZffxEoU/OW3scaXeskqLh9tyH1U+/JP1a7fPnZBi+p4DKJvR7j9TqewbV2gseML+Vj9sJ0S/ay0Tv9RqnmWqYJL/a450429cFnb7LGJon7N9KzYuDJG5lbrcIbLX3uM4flZH3UAAAAAuBu4sL9cFPjpQYOCVgV8q2+2Ae4NglUAAACAFwjBKgDcOwSrAAAAAC8QglUAuHcIVgEAAABeIASrAHDvEKwCAAAAvEAIVgHg3iFYBQAAAAAAgNNBsAoAAAAAAACng2AVAAAAAAAATgfBKgAAAAAAAJwOglUAAAAAAAA4HQSrAAAAAAAAcDoIVgEAAAAAAOB0EKwCAAAAAADA6SBYBQA4KfqP/PUf+n/58uUxpebXr19/Pn369Oft27cP5fX58ePHPz9//nws8V9+//79oPfdu3cPdSQfPnz48/3798cSUOExka+uyVPpfe3gV7hXvC9DzxnX97dv3x7s8fj5PJatcAxWAQDACVGg6eBzFKzGcvrUIRkD0Cr4VKD6/v37v2VUJ/7++fPnx5KQIVi9L/Ar3Cvej6HnbOtbD409bjpTZVc8j2cPnqGGVQAAcDIUYDoAnR1wDjJ1SCoINQo4lS49MV04T3X1VtaoXbfJU+AagtX7Ar/CveK9GHrOtL51TssWnbn5/Pz69evf8cx5MIdVAABwEhQ46utCPtQsXbDq4FJPbnNAKnSAK18HpVE5662+JuwDV3bAf3mqyxFB1dOAX+Fe0byVQM+Z1rffoOprwBV+68rZug+r4EbokqjFJfGGFMVf59MbkPjmI+Ky8SlNvIjGdOP2nOc3LJLq4uryviz76ZAWndGF2W93ZHd+w2Osq7tYa4ErX+UiSqtk5p8O1VHd+NWMKOqLNpNuw/FlXlL5TPY438Q6lVRjlanqVRJ15fFTXi4/EmEdUeQ7jXNnd+yvyrr9a6CxkU3xzWO0qRoTYZtUN9KlZ9+JS+fODOtR37SuKhsiPvxkV4XXlOwyVVokzt9qnUaq+eS9q/PBpT6MbUZm45tF7R8Zq9U1ZHJ655tdvSM8b9THI3ttXtdOz6L6R/ZgUemTzHR245nFfTvi1yN7zCVnY0ds2yK75INOT7cO9LvSrzEnVEaS/WNRnvqa59EK1pHbi/rl05EPOlbngsTEOmZ1DkrszypP/RjN9apOlhUfV314qjto1Kf+aQ2sovH0nNIarPCZpzEQq2P6HHitd/PSD5c9J2Cd5xlBKIkLaSRavNXh6Py8WfkSGN+mGG8krqNF5fLVAnJ5bzgqr99VR2gj0+9ZtGjzgtWGN9qIfADkvKi3k50L585BEy8eEW9K1cHvzVN9NbM28xhWVPUqibo8frsbu0XMbK98X9XRXLkGWW8lI5vyPO/Ss+/EzBdRurkzQvNJ69ZzqrIh4vxu/mvfsD3GfRjZ53U6m5ez+VTtA5f6MLYZsd5ufEdS2dmxuoaM94osuc1dvSMu3WvzuDt9JDt7sKh0ZFndWyrxPDji1yo/S7ZNY6n0I2djR1Xf0t0LunVwzTnhfWdFjs6L2F7ny84HHatzQWJiHbM6ByUeh5HPun5UZbNEP3VUfRBRz0hm9kUbqn7uBKwO6CSjO6zzVsf0DHRrE+acYwRfKVpkOkCqCazDTIvWFx1tFvmA8yLMm5UXc3XRc16sExd7pyumS6/S/CRZtjlfG5qDX/Ur4zqSvIH5QKrqZeQ3HYJuS6K0FVTO9rpu7J/6EA+jyh6VcX4OwrzZdhuSx1SfO5v4DNsT++LxW/Gp6o3sNnlu5jYjKuv5IrkG1pV9Jxt00XJ+tsljmvvXpVe+u8bc2WE2fpUNGZfx+pjpFC6ze9EUXpvaF6Qj+/VSH6qs8yKuk9vrkJ44N6v98giVbUbrQXbaN1pDq4z0VhzZa11+NJ+Mx/nIHtxxDZ2788DtRJxW7TFeG5Lsp0vOxhVW7gWj/l9rTqgvEqU5P6L00V48YqVOnCPywaXzzlT96frYYf/Pxthz3XtBNZYjPA9XfNv1Qemyo5ozK3PNOisbpNd1V9ei8dypxtY6V/otbOOtke88Z7UOYY/bjyAMDxdNcG9m2tgiXoR50Y70dRucD1ktpojb1sFkVFdplpgntMEpvbuIdRuRbdtZyHEDyEHjCqonqTY++zH7xHQHv+vlJ9TCdaQzb/yXYluiXvtUNs3wuFbzpsP6Zxd925bnyhGsqxozYZvyfOjWRZduPZ3vlCc5MndWucQGk8vMdIqVMjM01t4/OvuybZHOhyrrehGXz+M4I67ja6zJyraM90hJ3tc7VvRmdvdatzGaT5lL9+CKS3R6HqzWc58jTuv8YP/lNuLclOyejavIP7605zU6WwfXnBPdWjTWufMgaNReRLZ7f7nWgyb3J47PrI8Z+z+PS4fG0v1Y3QuEfTvzk5j1YTRnRvZZZ2eD21X9HeL6z2vFba7eJVz+1viOLV+of7DH7UcQlg+XvPl5EeaNIl6EMt4Acp1qQ/JGky+LwnqqQ0K6lCep8KKVuM+xzm5AM/PfCLdZbbayw/kV8pPz4wbkS0Q+9IUPmCrvUmxLxO2tHJwe7x0/eq5VcyRi2yo/7zLT5eAj96ObJ136zHfKkxyZO6tcYoPJZWY6xUqZFbzWr+lDla3S1YbS8jiuYH0jP64w2/si3idW7N3RG9nda52+64dLfN9xVKfrdXMu0vnVaZ0fRrZdcjbu4PMn2zDz2zXnRLcWTbcXjxi1l9HDglH7u7g/0d5ZHzM788+4H9Wc6fD+seKnWR9mc2b3Dmp2fWc0H90/idv1fWM1+L3meruEuOZWxgv+y21HEB6YbRTOX90o9MTRefHJqejqiLgRKN/Bq9IztqlbeG4nExetRbp2Lm4Z2XC0rm3Y7UcMVC3a0N2/GLxGZKPyu/aO0gWNbi/PnYojfnQdyQiXuUa/Z7q6fnjOrqbPfKc8SWeH8y/hUhtELjPTKVbKrND51mTbMs6PeHxz+qytEe7vyI8reF/QfjbD9uZ+VOzoNUf2Wpfb9YPH5IjvO47qdP/ksxmdX5Um6fwwss3j2tW17kuxDVnXaB1ce050NpiRnzpG7WVi+yvlZ1RB46yPGftfn6uMxqwi3vGqe0Zm1odZ+12frLPz/a7vRA5ULVqrvpOu+vbIvnlt4ppb2ZOgZn0GwZOxulHkfC+AaqPoAk3X6VAbLqPAp9uEvJl0VO3ENyVawPnglM35qa5w/jU3RDPT3eXbv/KDnx5H6TYl+7drb4Tr5o1am7uf5ud2uzoV9mOeZyNWfe8yR/qdmena7Ue3vma+m9kxy19hZoPn4agN2+EHV91T8ojbvfRw7XxrbNuOD/Wz01eY2SBmfl4hfi2xesCXsV2zfuzqFdfea7t0szsm4qjOUVvei2ff9BAjv1r/zLZqTh05G4/Q+aGb70fnxIjRWIhZ/qVE/fp5ha589I/3SrHbB/t/Zy/pxqzDc2z1q+6zPsza37XP7PpOxPuUfnZfLfp9JUA/sm9eE9kof6l92bE6P6HmaXYQ2OLoRqE0SbUIvEhU13gz1sLpiAu8O7i0CJU/2riUn3W4H9psRAyyJN0G5PxusR/ZEM1Md5Uf27PNDgAko43R43Jk86zGVLjtajy6OhXu12hcM6u+d5nOzzvMdO32o1tfM9/N7JjlrzCzwfndfIoXMOP+ji463gMuHa/Ot8a27fhQPzt9hZkNYubnGdoHfKlSELCC7Rr144heYd3X2mu7dLM7JuKozi49zvVOp5n5dabHNuQ5Jb1VesS6u/N1lc4P3Xw/OidGdDaYWf6lRP36eYWqfPRF3gN2+2A/Zz0jujGr8EMGjePqmM36MGt/x77Iru+E2lB5n09xXXvuzpBfRuv7qZHNnk/6vHStw/+v28dPuCFHNwqlSapN2nUUyBinzRavn2x1G4M3oNFlV/mSaJs3Idlh4mYW0yOVrkjUsctMd5VfjYc2R1/wu3EUlQ9WGflPbcenwWanPesa2Z9Z9b3LdH7eYaZrtx/VeIqZ72Z2zPJXmNngr611a7H6GpQC25wW0TxSvuTIBTbS+da4nR0fenwlK8xsEDM/z3Abupis4svUyK4jekXVn+i3rp/Oz+PRpZvdMRFHdXbp7vPoXDIzv1r/zLY8dk7fPRuP0PnBfcu2HZ0TIzobzCz/Urz/7eh3+eh/+6zaE3f7YF07/nSdPGaZaEt13nfM+jBrf9W+zJHxd/lqfHJ6h8vv7pvXQIGp74KaT5eeofAPT7ODwBZeWDGwjHQbhdIk1eLNl9S4aaws9upgM7Zn9BXBqi3rzG+BrE9SPYGqdEVi33Zxve7Jl/Nj27Y3X0iiHQr4K3y4Vn6dUY2Jn7J2DyBG45ix/XmejVj1vctEPx5lpmu3Hx7PXH7mO9uxM3d2mdngwFOHcnUoun6cjypn2yrb7Y9uP9qh860Z2SGcH33o8ZWsMLNBzPw8Q/5X/dWvTXvcZnV29Rr351p7bZdudsdEHNVZpccHLCuX+JlfrWtmW55T9u/u2XiEzj/dfD86J0bYBl3OKzobr4HG2UHBztsz2xP9P5oPu32wP/W5Sjdmmdl53zHrg9vfvYPOODL+Lp/PM8/f7qyLHN03LyXPSQLV63H9HQSW0KSWaDJ7EXabW7dRKE0SN12jQ8f53uAkK0+dRayfDzDbW7VrXDeW8SKu6vktQ7URVboiSneZFawnXhg7nB/b9tduq/GKT3qrg99j2Y31iGqezObOLD9iP+Z5NmLV9y4T/XiUma7dfnhMcvnKd27z6NzZZWX8vHby4ei5qHWX15TzVDde7mO/rjFWlW8v9aF+ntWLdOMbWfHzCNsz85nGQW14L/TDxI5VvZlr77VdulG6y6xyVGeVvtu+y3Ztz/LdXp5TnkddPTHTvYptkES6+X50TlRYh/eRbm11Nl6KghAHJOpX3MNm2J7ohyrN7PbB/t/ZS7oxy3h+7egWVR+ucQedseu7eO/MyFbP4dmDVOuoxvMpsR93/QRzrruDwDLxj8gt3du4bqNwvbggtdh1CYwBqqXaiOJm0km+UDnd2L5Kom1Oqw6WuEnlgNrp3cYT+7CCNzyLfu9wmdi2N6TqqZ02fh+i1UXUvqrGYobbjXWrtMgsP2I/dvNsVYTbzdKNYUVXJ+obSe5Hh8ckl698d+nc2aWyIaO1Y7v0qTqegxLtBxnNU19QJaoTf89r8CiVby/1oeepZIVufCMrfh5he6qxjn6NovRZYOCyu3PI9a6113bpZndMxFGdVfpu+y7btT3Ld3t5Trme8dyrpNO9Stfnbr677O6cyMSyli546GzcxUFxFu0dsmcH143+r9LMbh/s/7iXRB0r0u1VR/epqg/XuINWZJ2WFWynzq+KaHN1rhmXqcbzGlTjsDPGK36Ef3PZDgKH0UKLTwZHB0S3UXjie0EqeHKaxbqrA0qsLjDjgyoGYravEtum9p3WETeiuMlUaZHYhxX8ZlSifowOO5eLbXvcOnviYZ4PFfsqp69QbZBVWmSWH7Efu3m2KsLtZul8VtHVifpGkvvR4THJ5SvfXTp3dqlsqND60gMqB4L6lK0j+xQoSW8MbNXe6BKwS+XbS33oeSpZoRvfyKqfO2xPNdbOs6it1a+nuc7OHHqKvbZLN0p3mVWO6qzSd9t32a7tWb7bi3PK+/7u2XiUrs/VfL9kTmSkS310Wa3n7qFLZ+MuXp8Wta9+zh72VFhH7GOVZnb7YP/HvSTqWJE4dhH7IepeoerDNe6gFW4nywq+w47a8fkhm7vxd5vVeF6DahzsoxVZ8SP8m8t2EDgVWpjafLSYtXBGl0C4P44eVPeM+vtUBw4A3B/VxRtgFc+d13SusGbg3mHmAtwJry1YVT9HT08B4PXBxRsuwXOHYBXgfmDmAtwJrylYVYCqr3pd8yupAHD/cPGGS/DcIVgFuB+YuQB3wmv8GjAAQISLN1yC5w7BKsD9wMwFuBMIVgHgtcPFGy7Bc4dgFeB+YOYCAAAAAADA6SBYBQAAAAAAgNNBsAoAAAAAAACng2AVAAAAACDB33kC3B5WIQAAAABAgmAV4PawCgEAAAAAEgSrALeHVQgAAAAAkCBYBbg9rEIAAAAAgATBKsDtYRUCAAAAACQIVgFuD6sQAAAAACBBsApwe1iFAAAAAAAJgtWejx8/Pvjn58+fjym3Qe3LDtkDLxNWIQAAAABAwsHq27dvH37O8uHDhz9fvnz58/v374dyGQdSWaRPdb99+/ZY8r98/fr1oaz0nxHZL/t+/PjxmHIb1L7skD3wMiFYBQAAAABIKAjypwMiy7t37/6mK/isAk8HUg5OLTH4lZ7q7aSCVOUTrI4hWH35EKwCAAAAACQUBPnTP0d+/fr19+uwku/fvz/m/MMokFLe+/fvH/IVvEpXZCVYdcAYRcHvp0+fnjyIJFiF54JgFQAAAAAgoSDIn/65QsGh8hUoRmaBlL4+7IBVOiIrwarLdDL6mvGlEKzCc0GwCgAAAACQUBDkT/9coaDTX+2Nb1dXAimXkcS/fV0JVjOqr/YdAEuOBJOqE98YKwiXHdG+GKzGNuWHz58//6tsRGVdN+ruUMAd+6OfYxDe+VhllC574L4hWAUAAAAASCjY8ad/7vDb1Rh4dYFURgGbysXA8kiwGnFAmN/YznCQJ1FgKD0OxKMt1u9AUn1wmqT613kVxLqsfpY+1698ZJ86P+q3ryofx0D11v9aMVwOwSoAAAAAQEIBjz/9c4eDyxikrQarDsL0LwCbS4NVvcFUfQWGq+jvZh2YxreXQrbFtBg4Rrvjv4Ac/w7XvlBwmt+6+i1u1G/7c8Cpugp0nZZ97PYJVF8OBKsAAAAAAAkFPf70zx0OLmNguhusxsD00mDVbUtW8X+Xs/I21jbHQNU4+JQNxm9JFYRmbGsM9KsAtiL6WMGpglQC1ZcFwSoAAAAAQEJBkD/9c4eDyxjo7QarMTC7RbDqgLIKQDO2OQakxrbH/vjrvmpD+VHcbvSTvxo9CzrdT5X3W2EC1ZcFwSoAAAAAQEKBjz/9c4cDLgVfZjVYdWAWAz/pyfp2OBKsjgLQzEqwGm23LSOJb1adNiP62AGxviYMLweCVQAAAACAhIOlWeCkv6Os3urFQKrDZVQ/cotgdfWrt2I3WHUgWZWvsD/z/z+biT4e/c0t3C8EqwAAAAAACQU9/vTPFQ7O8j9mFAOpDgd98evD4hbBqtvMtlTsBqsOhKu/Wa2w/p2/WY2/K2jl68AvA4JVAAAAAICEgh5/+ueI3uT5v2OR5MAtB1IRBVIOyBRY5X8h9xbBqvrjOrkvChpj4LgbrKqu0qp/DVhIT3yL6vJ6ABDTVVd6HYhWPnb7XVtwXxCsAgAAAAAkFPD40wGRxV9rlSjYHP0rt8qPdf03qhLpqd4AOuBS2VjXojrWsSorxOBbtqktf7U2Bp9KV9pqsCr8d73S5/9nVZ/V3+yK6GP327+7bBWsCr/JjX8HC/cJwSoAAAAAQELBjnCwFsUBqP7l3O7tXRdQKjhTEDX6iqv/G5lO/P+Q7sgqsisGivpZgWXsp4PBUaBd/avC0h2DTvlRuqpg329RY3CvutFv9nEOSlXXfVj96jGcE4JVAAAAAICEAh0AuC2sQgAAAACABMEqwO1hFQIAAAAAJAhWAW4PqxAAAAAAIEGwCnB7WIUAAAAAAAmCVYDbwyoEAAAAAEgQrALcHlYhAAAAAAAAnA6CVQAAAAAAADgdBKsAAAAAAABwOghWAQAAAAAA4HQQrAIAAAAAAMDpIFgFAAAAAACA00GwCgAAAAAAAKeDYBUAAAAAAABOB8EqAAAAAAAAnA6CVQAAAAAAADgdBKsAAAAAAABwOghWAQAAAAAA4HQQrAIAAAAAAMDpIFgFAAAAAACA00GwCgAAAAAAAKeDYBUAAAAAAABOB8EqAAAAAAAAnA6CVQAAAAAAADgdBKsAAAAAAABwMv78+T942ClkVH8onQAAAABJRU5ErkJggg==;" vertex="1" parent="1">
          <mxGeometry x="-1560" y="1220" width="760" height="188.54" as="geometry" />
        </mxCell>
      </root>
    </mxGraphModel>
  </diagram>
</mxfile>
